<svg version="1.1" viewBox="0.0 0.0 600.0 371.0" fill="none" stroke="none" stroke-linecap="square" stroke-miterlimit="10" width="600" height="371" xmlns:xlink="http://www.w3.org/1999/xlink" xmlns="http://www.w3.org/2000/svg"><path fill="#ffffff" d="M0 0L600.0 0L600.0 371.0L0 371.0L0 0Z" fill-rule="nonzero"/><path stroke="#333333" stroke-width="1.0" stroke-linecap="butt" d="M70.5 65.5L70.5 312.5" fill-rule="nonzero"/><path stroke="#cccccc" stroke-width="1.0" stroke-linecap="butt" d="M170.5 65.5L170.5 312.5" fill-rule="nonzero"/><path stroke="#cccccc" stroke-width="1.0" stroke-linecap="butt" d="M269.5 65.5L269.5 312.5" fill-rule="nonzero"/><path stroke="#cccccc" stroke-width="1.0" stroke-linecap="butt" d="M369.5 65.5L369.5 312.5" fill-rule="nonzero"/><path stroke="#cccccc" stroke-width="1.0" stroke-linecap="butt" d="M468.5 65.5L468.5 312.5" fill-rule="nonzero"/><path stroke="#cccccc" stroke-width="1.0" stroke-linecap="butt" d="M567.5 65.5L567.5 312.5" fill-rule="nonzero"/><path stroke="#333333" stroke-width="1.0" stroke-linecap="butt" d="M67.5 312.5L581.5 312.5" fill-rule="nonzero"/><path stroke="#cccccc" stroke-width="1.0" stroke-linecap="butt" d="M67.5 250.5L581.5 250.5" fill-rule="nonzero"/><path stroke="#cccccc" stroke-width="1.0" stroke-linecap="butt" d="M67.5 189.5L581.5 189.5" fill-rule="nonzero"/><path stroke="#cccccc" stroke-width="1.0" stroke-linecap="butt" d="M67.5 127.5L581.5 127.5" fill-rule="nonzero"/><path stroke="#cccccc" stroke-width="1.0" stroke-linecap="butt" d="M67.5 65.5L581.5 65.5" fill-rule="nonzero"/><path stroke="#e6e6e6" stroke-width="1.0" stroke-linecap="butt" d="M67.5 281.5L581.5 281.5" fill-rule="nonzero"/><path stroke="#e6e6e6" stroke-width="1.0" stroke-linecap="butt" d="M67.5 220.5L581.5 220.5" fill-rule="nonzero"/><path stroke="#e6e6e6" stroke-width="1.0" stroke-linecap="butt" d="M67.5 158.5L581.5 158.5" fill-rule="nonzero"/><path stroke="#e6e6e6" stroke-width="1.0" stroke-linecap="butt" d="M67.5 96.5L581.5 96.5" fill-rule="nonzero"/><clipPath id="id_0"><path d="M67.63926 65.431625L581.26843 65.431625L581.26843 312.75476L67.63926 312.75476L67.63926 65.431625Z" clip-rule="nonzero"/></clipPath><path stroke="#1c4587" stroke-width="2.0" stroke-linecap="butt" stroke-opacity="0.4" clip-path="url(#id_0)" d="M0 87.739174L581.26843 293.89484" fill-rule="nonzero"/><path stroke="#ea4335" stroke-width="2.0" stroke-linecap="butt" stroke-opacity="0.4" clip-path="url(#id_0)" d="M0 98.13933L581.26843 293.67984" fill-rule="nonzero"/><path stroke="#f1c232" stroke-width="2.0" stroke-linecap="butt" stroke-opacity="0.4" clip-path="url(#id_0)" d="M0 98.055725L581.26843 292.48087" fill-rule="nonzero"/><path fill="#1c4587" clip-path="url(#id_0)" d="M80.91551 69.1409L84.81263 71.3909L84.81263 75.8909L80.91551 78.1409L77.0184 75.8909L77.0184 71.3909Z" fill-rule="nonzero"/><path fill="#1c4587" clip-path="url(#id_0)" d="M120.67687 130.95375L124.57399 133.20375L124.57399 137.70375L120.67687 139.95375L116.77976 137.70375L116.77976 133.20375Z" fill-rule="nonzero"/><path fill="#1c4587" clip-path="url(#id_0)" d="M170.37857 160.16922L174.27568 162.41922L174.27568 166.91922L170.37857 169.16922L166.48146 166.91922L166.48146 162.41922Z" fill-rule="nonzero"/><path fill="#1c4587" clip-path="url(#id_0)" d="M220.08028 177.95232L223.97739 180.20232L223.97739 184.70232L220.08028 186.95232L216.18315 184.70232L216.18315 180.20232Z" fill-rule="nonzero"/><path fill="#1c4587" clip-path="url(#id_0)" d="M269.78198 192.59737L273.67908 194.84737L273.67908 199.34737L269.78198 201.59737L265.88486 199.34737L265.88486 194.84737Z" fill-rule="nonzero"/><path fill="#1c4587" clip-path="url(#id_0)" d="M319.48367 205.97723L323.38077 208.22723L323.38077 212.72723L319.48367 214.97723L315.58655 212.72723L315.58655 208.22723Z" fill-rule="nonzero"/><path fill="#1c4587" clip-path="url(#id_0)" d="M369.18536 218.20396L373.0825 220.45396L373.0825 224.95396L369.18536 227.20396L365.28824 224.95396L365.28824 220.45396Z" fill-rule="nonzero"/><path fill="#1c4587" clip-path="url(#id_0)" d="M418.88705 230.5483L422.78418 232.7983L422.78418 237.2983L418.88705 239.5483L414.98996 237.2983L414.98996 232.7983Z" fill-rule="nonzero"/><path fill="#1c4587" clip-path="url(#id_0)" d="M468.58878 245.38545L472.48587 247.63545L472.48587 252.13545L468.58878 254.38545L464.69165 252.13545L464.69165 247.63545Z" fill-rule="nonzero"/><path fill="#1c4587" clip-path="url(#id_0)" d="M518.29047 260.1501L522.18756 262.4001L522.18756 266.9001L518.29047 269.1501L514.3934 266.9001L514.3934 262.4001Z" fill-rule="nonzero"/><path fill="#1c4587" clip-path="url(#id_0)" d="M567.9922 274.4849L571.8893 276.7349L571.8893 281.2349L567.9922 283.4849L564.09503 281.2349L564.09503 276.7349Z" fill-rule="nonzero"/><path fill="#ea4335" clip-path="url(#id_0)" d="M80.91551 67.63185L82.711624 73.15971L88.523964 73.15971L83.821686 76.57612L85.6178 82.10398L80.91551 78.68758L76.213234 82.10398L78.009346 76.57612L73.30706 73.15971L79.1194 73.15971Z" fill-rule="nonzero"/><path fill="#ea4335" clip-path="url(#id_0)" d="M120.67687 138.25887L122.472984 143.78673L128.28532 143.78673L123.583046 147.20314L125.37916 152.731L120.67687 149.31459L115.974594 152.731L117.770706 147.20314L113.06842 143.78673L118.88076 143.78673Z" fill-rule="nonzero"/><path fill="#ea4335" clip-path="url(#id_0)" d="M170.37857 166.50687L172.17468 172.03474L177.98703 172.03474L173.28474 175.45114L175.08086 180.979L170.37857 177.5626L165.67628 180.979L167.4724 175.45114L162.77013 172.03474L168.58246 172.03474Z" fill-rule="nonzero"/><path fill="#ea4335" clip-path="url(#id_0)" d="M220.08028 182.74574L221.87639 188.2736L227.68872 188.2736L222.98643 191.69002L224.78255 197.21788L220.08028 193.80147L215.37799 197.21788L217.1741 191.69002L212.47182 188.2736L218.28416 188.2736Z" fill-rule="nonzero"/><path fill="#ea4335" clip-path="url(#id_0)" d="M269.78198 195.90475L271.5781 201.43262L277.3904 201.43262L272.68814 204.84903L274.48425 210.37689L269.78198 206.96048L265.07968 210.37689L266.8758 204.84903L262.17352 201.43262L267.98587 201.43262Z" fill-rule="nonzero"/><path fill="#ea4335" clip-path="url(#id_0)" d="M319.48367 207.84242L321.2798 213.37029L327.09213 213.37029L322.38983 216.7867L324.18594 222.31456L319.48367 218.89815L314.78137 222.31456L316.57748 216.7867L311.8752 213.37029L317.68756 213.37029Z" fill-rule="nonzero"/><path fill="#ea4335" clip-path="url(#id_0)" d="M369.18536 219.20308L370.98148 224.73094L376.79382 224.73094L372.09152 228.14735L373.88763 233.67522L369.18536 230.25882L364.4831 233.67522L366.2792 228.14735L361.5769 224.73094L367.38925 224.73094Z" fill-rule="nonzero"/><path fill="#ea4335" clip-path="url(#id_0)" d="M418.88705 230.3787L420.68317 235.90656L426.4955 235.90656L421.79324 239.32297L423.58936 244.85083L418.88705 241.43442L414.18478 244.85083L415.9809 239.32297L411.27863 235.90656L417.09094 235.90656Z" fill-rule="nonzero"/><path fill="#ea4335" clip-path="url(#id_0)" d="M468.58878 240.91174L470.3849 246.4396L476.1972 246.4396L471.49493 249.85602L473.29105 255.38388L468.58878 251.96747L463.88647 255.38388L465.6826 249.85602L460.98032 246.4396L466.79266 246.4396Z" fill-rule="nonzero"/><path fill="#ea4335" clip-path="url(#id_0)" d="M518.29047 256.78452L520.08655 262.31238L525.8989 262.31238L521.19666 265.7288L522.99274 271.25665L518.29047 267.84024L513.5882 271.25665L515.3843 265.7288L510.682 262.31238L516.4943 262.31238Z" fill-rule="nonzero"/><path fill="#ea4335" clip-path="url(#id_0)" d="M567.9922 270.93646L569.78827 276.46432L575.6006 276.46432L570.8983 279.88074L572.69446 285.4086L567.9922 281.9922L563.28986 285.4086L565.086 279.88074L560.3837 276.46432L566.19604 276.46432Z" fill-rule="nonzero"/><path fill="#f1c232" clip-path="url(#id_0)" d="M80.91551 70.2439L85.41551 74.7439L80.91551 79.2439L76.41551 74.7439Z" fill-rule="nonzero"/><path fill="#f1c232" clip-path="url(#id_0)" d="M120.67687 140.44786L125.17687 144.94786L120.67687 149.44786L116.17687 144.94786Z" fill-rule="nonzero"/><path fill="#f1c232" clip-path="url(#id_0)" d="M170.37857 169.40692L174.87857 173.90692L170.37857 178.40692L165.87857 173.90692Z" fill-rule="nonzero"/><path fill="#f1c232" clip-path="url(#id_0)" d="M220.08028 186.23924L224.58028 190.73924L220.08028 195.23924L215.58028 190.73924Z" fill-rule="nonzero"/><path fill="#f1c232" clip-path="url(#id_0)" d="M269.78198 199.30118L274.28198 203.80118L269.78198 208.30118L265.28198 203.80118Z" fill-rule="nonzero"/><path fill="#f1c232" clip-path="url(#id_0)" d="M319.48367 211.68088L323.98367 216.18088L319.48367 220.68088L314.98367 216.18088Z" fill-rule="nonzero"/><path fill="#f1c232" clip-path="url(#id_0)" d="M369.18536 223.07759L373.68536 227.57759L369.18536 232.07759L364.68536 227.57759Z" fill-rule="nonzero"/><path fill="#f1c232" clip-path="url(#id_0)" d="M418.88705 233.86836L423.38705 238.36836L418.88705 242.86836L414.38705 238.36836Z" fill-rule="nonzero"/><path fill="#f1c232" clip-path="url(#id_0)" d="M468.58878 244.48643L473.08878 248.98643L468.58878 253.48643L464.08878 248.98643Z" fill-rule="nonzero"/><path fill="#f1c232" clip-path="url(#id_0)" d="M518.29047 254.97491L522.79047 259.4749L518.29047 263.9749L513.79047 259.4749Z" fill-rule="nonzero"/><path fill="#f1c232" clip-path="url(#id_0)" d="M567.9922 274.19537L572.4922 278.69537L567.9922 283.19537L563.4922 278.69537Z" fill-rule="nonzero"/><path fill="#000000" d="M257.3757 355.1271L257.3757 346.53336L260.6257 346.53336Q261.46945 346.53336 261.92258 346.61148Q262.5632 346.72086 262.98508 347.01773Q263.42258 347.3146 263.67258 347.84586Q263.9382 348.3771 263.9382 349.01773Q263.9382 350.11148 263.23508 350.8771Q262.54758 351.6271 260.71945 351.6271L258.51633 351.6271L258.51633 355.1271L257.3757 355.1271ZM258.51633 350.6271L260.73508 350.6271Q261.84445 350.6271 262.29758 350.22086Q262.76633 349.79898 262.76633 349.04898Q262.76633 348.51773 262.48508 348.14273Q262.21945 347.7521 261.78195 347.6271Q261.48508 347.54898 260.71945 347.54898L258.51633 347.54898L258.51633 350.6271ZM264.4382 355.1271L267.73508 346.53336L268.95383 346.53336L272.46945 355.1271L271.1882 355.1271L270.17258 352.51773L266.59445 352.51773L265.64133 355.1271L264.4382 355.1271ZM266.92258 351.59586L269.82883 351.59586L268.9382 349.22086Q268.51633 348.14273 268.32883 347.4396Q268.15695 348.26773 267.86008 349.08023L266.92258 351.59586ZM277.40695 351.7521L277.40695 350.7521L281.03195 350.73648L281.03195 353.92398Q280.20383 354.59586 279.3132 354.9396Q278.42258 355.26773 277.48508 355.26773Q276.21945 355.26773 275.17258 354.73648Q274.14133 354.1896 273.61008 353.17398Q273.09445 352.14273 273.09445 350.8771Q273.09445 349.61148 273.61008 348.53336Q274.14133 347.4396 275.1257 346.92398Q276.11008 346.39273 277.39133 346.39273Q278.32883 346.39273 279.07883 346.6896Q279.82883 346.98648 280.2507 347.53336Q280.6882 348.0646 280.90695 348.9396L279.89133 349.22086Q279.6882 348.5646 279.39133 348.1896Q279.11008 347.8146 278.57883 347.59586Q278.04758 347.36148 277.40695 347.36148Q276.6257 347.36148 276.04758 347.59586Q275.48508 347.83023 275.1257 348.22086Q274.78195 348.61148 274.59445 349.08023Q274.26633 349.8771 274.26633 350.79898Q274.26633 351.95523 274.65695 352.73648Q275.0632 353.5021 275.8132 353.8771Q276.5632 354.2521 277.42258 354.2521Q278.15695 354.2521 278.86008 353.97086Q279.5632 353.67398 279.92258 353.36148L279.92258 351.7521L277.40695 351.7521ZM282.40695 355.1271L282.40695 346.53336L288.61008 346.53336L288.61008 347.54898L283.54758 347.54898L283.54758 350.17398L288.29758 350.17398L288.29758 351.1896L283.54758 351.1896L283.54758 354.11148L288.8132 354.11148L288.8132 355.1271L282.40695 355.1271ZM293.4382 355.1271L293.4382 346.53336L299.23508 346.53336L299.23508 347.54898L294.57883 347.54898L294.57883 350.20523L298.61008 350.20523L298.61008 351.22086L294.57883 351.22086L294.57883 355.1271L293.4382 355.1271ZM300.39133 355.1271L300.39133 346.53336L304.20383 346.53336Q305.36008 346.53336 305.95383 346.76773Q306.54758 347.0021 306.90695 347.59586Q307.26633 348.17398 307.26633 348.8771Q307.26633 349.79898 306.67258 350.42398Q306.07883 351.04898 304.84445 351.22086Q305.29758 351.4396 305.53195 351.64273Q306.03195 352.09586 306.46945 352.78336L307.96945 355.1271L306.53195 355.1271L305.40695 353.34586Q304.90695 352.5646 304.57883 352.15836Q304.26633 351.7521 304.0007 351.59586Q303.7507 351.42398 303.48508 351.34586Q303.29758 351.3146 302.86008 351.3146L301.53195 351.3146L301.53195 355.1271L300.39133 355.1271ZM301.53195 350.33023L303.98508 350.33023Q304.7507 350.33023 305.1882 350.17398Q305.64133 350.0021 305.86008 349.65836Q306.09445 349.29898 306.09445 348.8771Q306.09445 348.26773 305.64133 347.8771Q305.20383 347.48648 304.2507 347.48648L301.53195 347.48648L301.53195 350.33023ZM308.4382 355.1271L311.73508 346.53336L312.95383 346.53336L316.46945 355.1271L315.1882 355.1271L314.17258 352.51773L310.59445 352.51773L309.64133 355.1271L308.4382 355.1271ZM310.92258 351.59586L313.82883 351.59586L312.9382 349.22086Q312.51633 348.14273 312.32883 347.4396Q312.15695 348.26773 311.86008 349.08023L310.92258 351.59586ZM317.34445 355.1271L317.34445 346.53336L319.0632 346.53336L321.09445 352.61148Q321.3757 353.47086 321.5007 353.89273Q321.64133 353.42398 321.95383 352.51773L324.01633 346.53336L325.54758 346.53336L325.54758 355.1271L324.45383 355.1271L324.45383 347.9396L321.95383 355.1271L320.92258 355.1271L318.4382 347.8146L318.4382 355.1271L317.34445 355.1271ZM327.40695 355.1271L327.40695 346.53336L333.61008 346.53336L333.61008 347.54898L328.54758 347.54898L328.54758 350.17398L333.29758 350.17398L333.29758 351.1896L328.54758 351.1896L328.54758 354.11148L333.8132 354.11148L333.8132 355.1271L327.40695 355.1271ZM335.0007 352.36148L336.0632 352.26773Q336.14133 352.92398 336.42258 353.33023Q336.70383 353.73648 337.28195 354.0021Q337.8757 354.2521 338.61008 354.2521Q339.2507 354.2521 339.7507 354.0646Q340.2507 353.86148 340.48508 353.53336Q340.73508 353.1896 340.73508 352.79898Q340.73508 352.39273 340.5007 352.09586Q340.26633 351.78336 339.73508 351.58023Q339.3757 351.4396 338.1882 351.15836Q337.01633 350.8771 336.54758 350.6271Q335.92258 350.29898 335.6257 349.83023Q335.32883 349.34586 335.32883 348.7521Q335.32883 348.11148 335.6882 347.54898Q336.0632 346.97086 336.76633 346.6896Q337.48508 346.39273 338.34445 346.39273Q339.29758 346.39273 340.03195 346.70523Q340.76633 347.0021 341.15695 347.61148Q341.54758 348.20523 341.57883 348.95523L340.48508 349.03336Q340.39133 348.22086 339.8757 347.8146Q339.3757 347.39273 338.39133 347.39273Q337.36008 347.39273 336.89133 347.76773Q336.42258 348.14273 336.42258 348.67398Q336.42258 349.14273 336.7507 349.4396Q337.07883 349.73648 338.45383 350.04898Q339.84445 350.36148 340.36008 350.59586Q341.11008 350.95523 341.46945 351.48648Q341.82883 352.0021 341.82883 352.70523Q341.82883 353.39273 341.4382 354.0021Q341.04758 354.59586 340.3132 354.9396Q339.57883 355.26773 338.65695 355.26773Q337.48508 355.26773 336.6882 354.9396Q335.90695 354.59586 335.45383 353.90836Q335.01633 353.22086 335.0007 352.36148ZM348.26633 357.65836Q347.39133 356.54898 346.78195 355.08023Q346.1882 353.59586 346.1882 352.01773Q346.1882 350.6271 346.6257 349.34586Q347.15695 347.86148 348.26633 346.39273L349.01633 346.39273Q348.3132 347.61148 348.07883 348.1271Q347.71945 348.9396 347.51633 349.8146Q347.26633 350.90836 347.26633 352.01773Q347.26633 354.84586 349.01633 357.65836L348.26633 357.65836ZM353.92258 355.1271L352.8757 355.1271L352.8757 348.40836Q352.48508 348.76773 351.86008 349.14273Q351.2507 349.5021 350.76633 349.67398L350.76633 348.65836Q351.64133 348.23648 352.29758 347.65836Q352.96945 347.0646 353.2507 346.5021L353.92258 346.5021L353.92258 355.1271ZM356.95383 350.89273Q356.95383 349.36148 357.26633 348.4396Q357.57883 347.5021 358.1882 347.0021Q358.8132 346.5021 359.7507 346.5021Q360.4382 346.5021 360.95383 346.78336Q361.48508 347.0646 361.82883 347.59586Q362.17258 348.11148 362.36008 348.86148Q362.54758 349.61148 362.54758 350.89273Q362.54758 352.40836 362.23508 353.33023Q361.9382 354.2521 361.3132 354.76773Q360.70383 355.26773 359.7507 355.26773Q358.51633 355.26773 357.79758 354.3771Q356.95383 353.3146 356.95383 350.89273ZM358.03195 350.89273Q358.03195 353.0021 358.53195 353.70523Q359.03195 354.40836 359.7507 354.40836Q360.48508 354.40836 360.96945 353.70523Q361.46945 353.0021 361.46945 350.89273Q361.46945 348.76773 360.96945 348.08023Q360.48508 347.3771 359.73508 347.3771Q359.01633 347.3771 358.57883 347.98648Q358.03195 348.76773 358.03195 350.89273ZM363.82883 352.54898L363.82883 351.48648L367.07883 351.48648L367.07883 352.54898L363.82883 352.54898ZM367.95383 352.8771L369.0632 352.78336Q369.1882 353.59586 369.6257 354.0021Q370.07883 354.40836 370.71945 354.40836Q371.46945 354.40836 372.0007 353.83023Q372.53195 353.2521 372.53195 352.3146Q372.53195 351.40836 372.01633 350.89273Q371.51633 350.36148 370.6882 350.36148Q370.1882 350.36148 369.76633 350.59586Q369.36008 350.83023 369.1257 351.1896L368.14133 351.0646L368.96945 346.65836L373.2507 346.65836L373.2507 347.65836L369.8132 347.65836L369.36008 349.97086Q370.1257 349.42398 370.96945 349.42398Q372.09445 349.42398 372.86008 350.20523Q373.64133 350.98648 373.64133 352.22086Q373.64133 353.3771 372.96945 354.23648Q372.14133 355.26773 370.71945 355.26773Q369.54758 355.26773 368.79758 354.61148Q368.0632 353.95523 367.95383 352.8771ZM374.95383 350.89273Q374.95383 349.36148 375.26633 348.4396Q375.57883 347.5021 376.1882 347.0021Q376.8132 346.5021 377.7507 346.5021Q378.4382 346.5021 378.95383 346.78336Q379.48508 347.0646 379.82883 347.59586Q380.17258 348.11148 380.36008 348.86148Q380.54758 349.61148 380.54758 350.89273Q380.54758 352.40836 380.23508 353.33023Q379.9382 354.2521 379.3132 354.76773Q378.70383 355.26773 377.7507 355.26773Q376.51633 355.26773 375.79758 354.3771Q374.95383 353.3146 374.95383 350.89273ZM376.03195 350.89273Q376.03195 353.0021 376.53195 353.70523Q377.03195 354.40836 377.7507 354.40836Q378.48508 354.40836 378.96945 353.70523Q379.46945 353.0021 379.46945 350.89273Q379.46945 348.76773 378.96945 348.08023Q378.48508 347.3771 377.73508 347.3771Q377.01633 347.3771 376.57883 347.98648Q376.03195 348.76773 376.03195 350.89273ZM381.95383 350.89273Q381.95383 349.36148 382.26633 348.4396Q382.57883 347.5021 383.1882 347.0021Q383.8132 346.5021 384.7507 346.5021Q385.4382 346.5021 385.95383 346.78336Q386.48508 347.0646 386.82883 347.59586Q387.17258 348.11148 387.36008 348.86148Q387.54758 349.61148 387.54758 350.89273Q387.54758 352.40836 387.23508 353.33023Q386.9382 354.2521 386.3132 354.76773Q385.70383 355.26773 384.7507 355.26773Q383.51633 355.26773 382.79758 354.3771Q381.95383 353.3146 381.95383 350.89273ZM383.03195 350.89273Q383.03195 353.0021 383.53195 353.70523Q384.03195 354.40836 384.7507 354.40836Q385.48508 354.40836 385.96945 353.70523Q386.46945 353.0021 386.46945 350.89273Q386.46945 348.76773 385.96945 348.08023Q385.48508 347.3771 384.73508 347.3771Q384.01633 347.3771 383.57883 347.98648Q383.03195 348.76773 383.03195 350.89273ZM389.9382 357.65836L389.1882 357.65836Q390.9382 354.84586 390.9382 352.01773Q390.9382 350.92398 390.6882 349.83023Q390.48508 348.95523 390.1257 348.14273Q389.89133 347.6271 389.1882 346.39273L389.9382 346.39273Q391.03195 347.86148 391.5632 349.34586Q392.01633 350.6271 392.01633 352.01773Q392.01633 353.59586 391.40695 355.08023Q390.79758 356.54898 389.9382 357.65836Z" fill-rule="nonzero"/><path fill="#000000" d="M22.887331 221.07108L14.29358 221.07108L14.29358 219.35233L20.371706 217.32108Q21.231081 217.03983 21.652956 216.91483Q21.184206 216.7742 20.277956 216.4617L14.29358 214.3992L14.29358 212.86795L22.887331 212.86795L22.887331 213.9617L15.69983 213.9617L22.887331 216.4617L22.887331 217.49295L15.57483 219.97733L22.887331 219.97733L22.887331 221.07108ZM22.887331 210.8367L14.29358 210.8367L14.29358 209.7117L22.887331 209.7117L22.887331 210.8367ZM20.121706 208.41483L20.027956 207.35233Q20.684206 207.2742 21.090456 206.99295Q21.496706 206.7117 21.762331 206.13358Q22.012331 205.53983 22.012331 204.80545Q22.012331 204.16483 21.824831 203.66483Q21.621706 203.16483 21.293581 202.93045Q20.949831 202.68045 20.559206 202.68045Q20.152956 202.68045 19.856081 202.91483Q19.543581 203.1492 19.340456 203.68045Q19.199831 204.03983 18.918581 205.22733Q18.637331 206.3992 18.387331 206.86795Q18.059206 207.49295 17.590456 207.78983Q17.106081 208.0867 16.512331 208.0867Q15.871705 208.0867 15.309205 207.72733Q14.73108 207.35233 14.44983 206.6492Q14.152955 205.93045 14.152955 205.07108Q14.152955 204.11795 14.465455 203.38358Q14.76233 202.6492 15.371705 202.25858Q15.965455 201.86795 16.715456 201.8367L16.793581 202.93045Q15.98108 203.0242 15.57483 203.53983Q15.152955 204.03983 15.152955 205.0242Q15.152955 206.05545 15.527955 206.5242Q15.902955 206.99295 16.434206 206.99295Q16.902956 206.99295 17.199831 206.66483Q17.496706 206.3367 17.809206 204.9617Q18.121706 203.57108 18.356081 203.05545Q18.715456 202.30545 19.246706 201.94608Q19.762331 201.5867 20.465456 201.5867Q21.152956 201.5867 21.762331 201.97733Q22.356081 202.36795 22.699831 203.10233Q23.027956 203.8367 23.027956 204.75858Q23.027956 205.93045 22.699831 206.72733Q22.356081 207.50858 21.668581 207.9617Q20.981081 208.3992 20.121706 208.41483ZM20.121706 200.41483L20.027956 199.35233Q20.684206 199.2742 21.090456 198.99295Q21.496706 198.7117 21.762331 198.13358Q22.012331 197.53983 22.012331 196.80545Q22.012331 196.16483 21.824831 195.66483Q21.621706 195.16483 21.293581 194.93045Q20.949831 194.68045 20.559206 194.68045Q20.152956 194.68045 19.856081 194.91483Q19.543581 195.1492 19.340456 195.68045Q19.199831 196.03983 18.918581 197.22733Q18.637331 198.3992 18.387331 198.86795Q18.059206 199.49295 17.590456 199.78983Q17.106081 200.0867 16.512331 200.0867Q15.871705 200.0867 15.309205 199.72733Q14.73108 199.35233 14.44983 198.6492Q14.152955 197.93045 14.152955 197.07108Q14.152955 196.11795 14.465455 195.38358Q14.76233 194.6492 15.371705 194.25858Q15.965455 193.86795 16.715456 193.8367L16.793581 194.93045Q15.98108 195.0242 15.57483 195.53983Q15.152955 196.03983 15.152955 197.0242Q15.152955 198.05545 15.527955 198.5242Q15.902955 198.99295 16.434206 198.99295Q16.902956 198.99295 17.199831 198.66483Q17.496706 198.3367 17.809206 196.9617Q18.121706 195.57108 18.356081 195.05545Q18.715456 194.30545 19.246706 193.94608Q19.762331 193.5867 20.465456 193.5867Q21.152956 193.5867 21.762331 193.97733Q22.356081 194.36795 22.699831 195.10233Q23.027956 195.8367 23.027956 196.75858Q23.027956 197.93045 22.699831 198.72733Q22.356081 199.50858 21.668581 199.9617Q20.981081 200.3992 20.121706 200.41483ZM22.887331 192.00858L14.29358 192.00858L14.29358 185.80545L15.309205 185.80545L15.309205 190.86795L17.934206 190.86795L17.934206 186.11795L18.949831 186.11795L18.949831 190.86795L21.871706 190.86795L21.871706 185.60233L22.887331 185.60233L22.887331 192.00858ZM20.121706 184.41483L20.027956 183.35233Q20.684206 183.2742 21.090456 182.99295Q21.496706 182.7117 21.762331 182.13358Q22.012331 181.53983 22.012331 180.80545Q22.012331 180.16483 21.824831 179.66483Q21.621706 179.16483 21.293581 178.93045Q20.949831 178.68045 20.559206 178.68045Q20.152956 178.68045 19.856081 178.91483Q19.543581 179.1492 19.340456 179.68045Q19.199831 180.03983 18.918581 181.22733Q18.637331 182.3992 18.387331 182.86795Q18.059206 183.49295 17.590456 183.78983Q17.106081 184.0867 16.512331 184.0867Q15.871705 184.0867 15.309205 183.72733Q14.73108 183.35233 14.44983 182.6492Q14.152955 181.93045 14.152955 181.07108Q14.152955 180.11795 14.465455 179.38358Q14.76233 178.6492 15.371705 178.25858Q15.965455 177.86795 16.715456 177.8367L16.793581 178.93045Q15.98108 179.0242 15.57483 179.53983Q15.152955 180.03983 15.152955 181.0242Q15.152955 182.05545 15.527955 182.5242Q15.902955 182.99295 16.434206 182.99295Q16.902956 182.99295 17.199831 182.66483Q17.496706 182.3367 17.809206 180.9617Q18.121706 179.57108 18.356081 179.05545Q18.715456 178.30545 19.246706 177.94608Q19.762331 177.5867 20.465456 177.5867Q21.152956 177.5867 21.762331 177.97733Q22.356081 178.36795 22.699831 179.10233Q23.027956 179.8367 23.027956 180.75858Q23.027956 181.93045 22.699831 182.72733Q22.356081 183.50858 21.668581 183.9617Q20.981081 184.3992 20.121706 184.41483Z" fill-rule="nonzero"/><path fill="#000000" d="M55.139256 312.5204Q55.139256 310.98914 55.451756 310.06726Q55.764256 309.12976 56.37363 308.62976Q56.99863 308.12976 57.93613 308.12976Q58.62363 308.12976 59.139256 308.411Q59.670506 308.69226 60.014256 309.2235Q60.358006 309.73914 60.545506 310.48914Q60.733006 311.23914 60.733006 312.5204Q60.733006 314.036 60.420506 314.9579Q60.12363 315.87976 59.49863 316.3954Q58.889256 316.8954 57.93613 316.8954Q56.701756 316.8954 55.983006 316.00476Q55.139256 314.94226 55.139256 312.5204ZM56.21738 312.5204Q56.21738 314.62976 56.71738 315.3329Q57.21738 316.036 57.93613 316.036Q58.670506 316.036 59.15488 315.3329Q59.65488 314.62976 59.65488 312.5204Q59.65488 310.3954 59.15488 309.7079Q58.670506 309.00476 57.920506 309.00476Q57.201756 309.00476 56.764256 309.61414Q56.21738 310.3954 56.21738 312.5204Z" fill-rule="nonzero"/><path fill="#000000" d="M31.108007 247.92397L30.061132 247.92397L30.061132 241.20522Q29.670507 241.56459 29.045507 241.93959Q28.436132 242.29897 27.951757 242.47084L27.951757 241.45522Q28.826757 241.03334 29.483007 240.45522Q30.154882 239.86147 30.436132 239.29897L31.108007 239.29897L31.108007 247.92397ZM34.13926 243.68959Q34.13926 242.15834 34.45176 241.23647Q34.76426 240.29897 35.373634 239.79897Q35.998634 239.29897 36.936134 239.29897Q37.623634 239.29897 38.13926 239.58022Q38.67051 239.86147 39.01426 240.39272Q39.35801 240.90834 39.54551 241.65834Q39.73301 242.40834 39.73301 243.68959Q39.73301 245.20522 39.42051 246.12709Q39.123634 247.04897 38.498634 247.56459Q37.88926 248.06459 36.936134 248.06459Q35.70176 248.06459 34.98301 247.17397Q34.13926 246.11147 34.13926 243.68959ZM35.217384 243.68959Q35.217384 245.79897 35.717384 246.50209Q36.217384 247.20522 36.936134 247.20522Q37.67051 247.20522 38.154884 246.50209Q38.654884 245.79897 38.654884 243.68959Q38.654884 241.56459 38.154884 240.87709Q37.67051 240.17397 36.92051 240.17397Q36.20176 240.17397 35.76426 240.78334Q35.217384 241.56459 35.217384 243.68959ZM41.13926 243.68959Q41.13926 242.15834 41.45176 241.23647Q41.76426 240.29897 42.373634 239.79897Q42.998634 239.29897 43.936134 239.29897Q44.623634 239.29897 45.13926 239.58022Q45.67051 239.86147 46.01426 240.39272Q46.35801 240.90834 46.54551 241.65834Q46.73301 242.40834 46.73301 243.68959Q46.73301 245.20522 46.42051 246.12709Q46.123634 247.04897 45.498634 247.56459Q44.88926 248.06459 43.936134 248.06459Q42.70176 248.06459 41.98301 247.17397Q41.13926 246.11147 41.13926 243.68959ZM42.217384 243.68959Q42.217384 245.79897 42.717384 246.50209Q43.217384 247.20522 43.936134 247.20522Q44.67051 247.20522 45.154884 246.50209Q45.654884 245.79897 45.654884 243.68959Q45.654884 241.56459 45.154884 240.87709Q44.67051 240.17397 43.92051 240.17397Q43.20176 240.17397 42.76426 240.78334Q42.217384 241.56459 42.217384 243.68959ZM48.13926 243.68959Q48.13926 242.15834 48.45176 241.23647Q48.76426 240.29897 49.373634 239.79897Q49.998634 239.29897 50.936134 239.29897Q51.623634 239.29897 52.13926 239.58022Q52.67051 239.86147 53.01426 240.39272Q53.35801 240.90834 53.54551 241.65834Q53.73301 242.40834 53.73301 243.68959Q53.73301 245.20522 53.42051 246.12709Q53.123634 247.04897 52.498634 247.56459Q51.88926 248.06459 50.936134 248.06459Q49.70176 248.06459 48.98301 247.17397Q48.13926 246.11147 48.13926 243.68959ZM49.217384 243.68959Q49.217384 245.79897 49.717384 246.50209Q50.217384 247.20522 50.936134 247.20522Q51.67051 247.20522 52.154884 246.50209Q52.654884 245.79897 52.654884 243.68959Q52.654884 241.56459 52.154884 240.87709Q51.67051 240.17397 50.92051 240.17397Q50.20176 240.17397 49.76426 240.78334Q49.217384 241.56459 49.217384 243.68959ZM55.13926 243.68959Q55.13926 242.15834 55.45176 241.23647Q55.76426 240.29897 56.373634 239.79897Q56.998634 239.29897 57.936134 239.29897Q58.623634 239.29897 59.13926 239.58022Q59.67051 239.86147 60.01426 240.39272Q60.35801 240.90834 60.54551 241.65834Q60.73301 242.40834 60.73301 243.68959Q60.73301 245.20522 60.42051 246.12709Q60.123634 247.04897 59.498634 247.56459Q58.88926 248.06459 57.936134 248.06459Q56.70176 248.06459 55.98301 247.17397Q55.13926 246.11147 55.13926 243.68959ZM56.217384 243.68959Q56.217384 245.79897 56.717384 246.50209Q57.217384 247.20522 57.936134 247.20522Q58.67051 247.20522 59.154884 246.50209Q59.654884 245.79897 59.654884 243.68959Q59.654884 241.56459 59.154884 240.87709Q58.67051 240.17397 57.92051 240.17397Q57.20176 240.17397 56.76426 240.78334Q56.217384 241.56459 56.217384 243.68959Z" fill-rule="nonzero"/><path fill="#000000" d="M48.139256 257.6896Q48.139256 256.15836 48.451756 255.23648Q48.764256 254.29898 49.37363 253.79898Q49.99863 253.29898 50.93613 253.29898Q51.62363 253.29898 52.139256 253.58023Q52.670506 253.86148 53.014256 254.39273Q53.358006 254.90836 53.545506 255.65836Q53.733006 256.40836 53.733006 257.6896Q53.733006 259.20523 53.420506 260.1271Q53.12363 261.04898 52.49863 261.5646Q51.889256 262.0646 50.93613 262.0646Q49.701756 262.0646 48.983006 261.17398Q48.139256 260.11148 48.139256 257.6896ZM49.21738 257.6896Q49.21738 259.79898 49.71738 260.5021Q50.21738 261.20523 50.93613 261.20523Q51.670506 261.20523 52.15488 260.5021Q52.65488 259.79898 52.65488 257.6896Q52.65488 255.5646 52.15488 254.8771Q51.670506 254.17398 50.920506 254.17398Q50.201756 254.17398 49.764256 254.78336Q49.21738 255.5646 49.21738 257.6896ZM55.139256 257.6896Q55.139256 256.15836 55.451756 255.23648Q55.764256 254.29898 56.37363 253.79898Q56.99863 253.29898 57.93613 253.29898Q58.62363 253.29898 59.139256 253.58023Q59.670506 253.86148 60.014256 254.39273Q60.358006 254.90836 60.545506 255.65836Q60.733006 256.40836 60.733006 257.6896Q60.733006 259.20523 60.420506 260.1271Q60.12363 261.04898 59.49863 261.5646Q58.889256 262.0646 57.93613 262.0646Q56.701756 262.0646 55.983006 261.17398Q55.139256 260.11148 55.139256 257.6896ZM56.21738 257.6896Q56.21738 259.79898 56.71738 260.5021Q57.21738 261.20523 57.93613 261.20523Q58.670506 261.20523 59.15488 260.5021Q59.65488 259.79898 59.65488 257.6896Q59.65488 255.5646 59.15488 254.8771Q58.670506 254.17398 57.920506 254.17398Q57.201756 254.17398 56.764256 254.78336Q56.21738 255.5646 56.21738 257.6896Z" fill-rule="nonzero"/><path fill="#000000" d="M32.686134 185.07756L32.686134 186.09319L26.998632 186.09319Q26.998632 185.71819 27.123632 185.35881Q27.342382 184.78069 27.811132 184.21819Q28.295507 183.65569 29.201757 182.92131Q30.608007 181.76506 31.092382 181.09319Q31.592382 180.42131 31.592382 179.82756Q31.592382 179.20256 31.139257 178.78069Q30.686132 178.34319 29.967382 178.34319Q29.201757 178.34319 28.748632 178.79631Q28.295507 179.24944 28.279882 180.06194L27.201757 179.95256Q27.311132 178.73381 28.029882 178.10881Q28.764257 177.46819 29.998632 177.46819Q31.233007 177.46819 31.951757 178.15569Q32.67051 178.84319 32.67051 179.85881Q32.67051 180.37444 32.45176 180.87444Q32.248634 181.35881 31.748632 181.92131Q31.264257 182.46819 30.139257 183.42131Q29.186132 184.21819 28.904882 184.51506Q28.639257 184.79631 28.467382 185.07756L32.686134 185.07756ZM34.13926 181.85881Q34.13926 180.32756 34.45176 179.40569Q34.76426 178.46819 35.373634 177.96819Q35.998634 177.46819 36.936134 177.46819Q37.623634 177.46819 38.13926 177.74944Q38.67051 178.03069 39.01426 178.56194Q39.35801 179.07756 39.54551 179.82756Q39.73301 180.57756 39.73301 181.85881Q39.73301 183.37444 39.42051 184.29631Q39.123634 185.21819 38.498634 185.73381Q37.88926 186.23381 36.936134 186.23381Q35.70176 186.23381 34.98301 185.34319Q34.13926 184.28069 34.13926 181.85881ZM35.217384 181.85881Q35.217384 183.96819 35.717384 184.67131Q36.217384 185.37444 36.936134 185.37444Q37.67051 185.37444 38.154884 184.67131Q38.654884 183.96819 38.654884 181.85881Q38.654884 179.73381 38.154884 179.04631Q37.67051 178.34319 36.92051 178.34319Q36.20176 178.34319 35.76426 178.95256Q35.217384 179.73381 35.217384 181.85881ZM41.13926 181.85881Q41.13926 180.32756 41.45176 179.40569Q41.76426 178.46819 42.373634 177.96819Q42.998634 177.46819 43.936134 177.46819Q44.623634 177.46819 45.13926 177.74944Q45.67051 178.03069 46.01426 178.56194Q46.35801 179.07756 46.54551 179.82756Q46.73301 180.57756 46.73301 181.85881Q46.73301 183.37444 46.42051 184.29631Q46.123634 185.21819 45.498634 185.73381Q44.88926 186.23381 43.936134 186.23381Q42.70176 186.23381 41.98301 185.34319Q41.13926 184.28069 41.13926 181.85881ZM42.217384 181.85881Q42.217384 183.96819 42.717384 184.67131Q43.217384 185.37444 43.936134 185.37444Q44.67051 185.37444 45.154884 184.67131Q45.654884 183.96819 45.654884 181.85881Q45.654884 179.73381 45.154884 179.04631Q44.67051 178.34319 43.92051 178.34319Q43.20176 178.34319 42.76426 178.95256Q42.217384 179.73381 42.217384 181.85881ZM48.13926 181.85881Q48.13926 180.32756 48.45176 179.40569Q48.76426 178.46819 49.373634 177.96819Q49.998634 177.46819 50.936134 177.46819Q51.623634 177.46819 52.13926 177.74944Q52.67051 178.03069 53.01426 178.56194Q53.35801 179.07756 53.54551 179.82756Q53.73301 180.57756 53.73301 181.85881Q53.73301 183.37444 53.42051 184.29631Q53.123634 185.21819 52.498634 185.73381Q51.88926 186.23381 50.936134 186.23381Q49.70176 186.23381 48.98301 185.34319Q48.13926 184.28069 48.13926 181.85881ZM49.217384 181.85881Q49.217384 183.96819 49.717384 184.67131Q50.217384 185.37444 50.936134 185.37444Q51.67051 185.37444 52.154884 184.67131Q52.654884 183.96819 52.654884 181.85881Q52.654884 179.73381 52.154884 179.04631Q51.67051 178.34319 50.92051 178.34319Q50.20176 178.34319 49.76426 178.95256Q49.217384 179.73381 49.217384 181.85881ZM55.13926 181.85881Q55.13926 180.32756 55.45176 179.40569Q55.76426 178.46819 56.373634 177.96819Q56.998634 177.46819 57.936134 177.46819Q58.623634 177.46819 59.13926 177.74944Q59.67051 178.03069 60.01426 178.56194Q60.35801 179.07756 60.54551 179.82756Q60.73301 180.57756 60.73301 181.85881Q60.73301 183.37444 60.42051 184.29631Q60.123634 185.21819 59.498634 185.73381Q58.88926 186.23381 57.936134 186.23381Q56.70176 186.23381 55.98301 185.34319Q55.13926 184.28069 55.13926 181.85881ZM56.217384 181.85881Q56.217384 183.96819 56.717384 184.67131Q57.217384 185.37444 57.936134 185.37444Q58.67051 185.37444 59.154884 184.67131Q59.654884 183.96819 59.654884 181.85881Q59.654884 179.73381 59.154884 179.04631Q58.67051 178.34319 57.92051 178.34319Q57.20176 178.34319 56.76426 178.95256Q56.217384 179.73381 56.217384 181.85881Z" fill-rule="nonzero"/><path fill="#000000" d="M48.139256 195.85881Q48.139256 194.32756 48.451756 193.40569Q48.764256 192.46819 49.37363 191.96819Q49.99863 191.46819 50.93613 191.46819Q51.62363 191.46819 52.139256 191.74944Q52.670506 192.03069 53.014256 192.56194Q53.358006 193.07756 53.545506 193.82756Q53.733006 194.57756 53.733006 195.85881Q53.733006 197.37444 53.420506 198.29631Q53.12363 199.21819 52.49863 199.73381Q51.889256 200.23381 50.93613 200.23381Q49.701756 200.23381 48.983006 199.34319Q48.139256 198.28069 48.139256 195.85881ZM49.21738 195.85881Q49.21738 197.96819 49.71738 198.67131Q50.21738 199.37444 50.93613 199.37444Q51.670506 199.37444 52.15488 198.67131Q52.65488 197.96819 52.65488 195.85881Q52.65488 193.73381 52.15488 193.04631Q51.670506 192.34319 50.920506 192.34319Q50.201756 192.34319 49.764256 192.95256Q49.21738 193.73381 49.21738 195.85881ZM55.139256 195.85881Q55.139256 194.32756 55.451756 193.40569Q55.764256 192.46819 56.37363 191.96819Q56.99863 191.46819 57.93613 191.46819Q58.62363 191.46819 59.139256 191.74944Q59.670506 192.03069 60.014256 192.56194Q60.358006 193.07756 60.545506 193.82756Q60.733006 194.57756 60.733006 195.85881Q60.733006 197.37444 60.420506 198.29631Q60.12363 199.21819 59.49863 199.73381Q58.889256 200.23381 57.93613 200.23381Q56.701756 200.23381 55.983006 199.34319Q55.139256 198.28069 55.139256 195.85881ZM56.21738 195.85881Q56.21738 197.96819 56.71738 198.67131Q57.21738 199.37444 57.93613 199.37444Q58.670506 199.37444 59.15488 198.67131Q59.65488 197.96819 59.65488 195.85881Q59.65488 193.73381 59.15488 193.04631Q58.670506 192.34319 57.920506 192.34319Q57.201756 192.34319 56.764256 192.95256Q56.21738 193.73381 56.21738 195.85881Z" fill-rule="nonzero"/><path fill="#000000" d="M27.139257 121.99678L28.201757 121.856155Q28.373632 122.74678 28.811132 123.15303Q29.248632 123.543655 29.873632 123.543655Q30.623632 123.543655 31.139257 123.02803Q31.654882 122.512405 31.654882 121.74678Q31.654882 121.02803 31.170507 120.55928Q30.701757 120.074905 29.967382 120.074905Q29.670507 120.074905 29.217382 120.199905L29.342382 119.262405Q29.451757 119.27803 29.514257 119.27803Q30.186132 119.27803 30.717382 118.93428Q31.264257 118.574905 31.264257 117.84053Q31.264257 117.262405 30.873632 116.887405Q30.483007 116.49678 29.858007 116.49678Q29.248632 116.49678 28.826757 116.887405Q28.420507 117.27803 28.311132 118.043655L27.248632 117.856155Q27.436132 116.80928 28.123632 116.231155Q28.811132 115.637405 29.826757 115.637405Q30.529882 115.637405 31.123632 115.949905Q31.717382 116.24678 32.029884 116.762405Q32.342384 117.27803 32.342384 117.87178Q32.342384 118.418655 32.04551 118.887405Q31.748632 119.34053 31.170507 119.606155Q31.920507 119.77803 32.342384 120.34053Q32.76426 120.887405 32.76426 121.731155Q32.76426 122.856155 31.936132 123.637405Q31.123632 124.418655 29.873632 124.418655Q28.748632 124.418655 27.998632 123.74678Q27.248632 123.05928 27.139257 121.99678ZM34.13926 120.02803Q34.13926 118.49678 34.45176 117.574905Q34.76426 116.637405 35.373634 116.137405Q35.998634 115.637405 36.936134 115.637405Q37.623634 115.637405 38.13926 115.918655Q38.67051 116.199905 39.01426 116.731155Q39.35801 117.24678 39.54551 117.99678Q39.73301 118.74678 39.73301 120.02803Q39.73301 121.543655 39.42051 122.46553Q39.123634 123.387405 38.498634 123.90303Q37.88926 124.40303 36.936134 124.40303Q35.70176 124.40303 34.98301 123.512405Q34.13926 122.449905 34.13926 120.02803ZM35.217384 120.02803Q35.217384 122.137405 35.717384 122.84053Q36.217384 123.543655 36.936134 123.543655Q37.67051 123.543655 38.154884 122.84053Q38.654884 122.137405 38.654884 120.02803Q38.654884 117.90303 38.154884 117.21553Q37.67051 116.512405 36.92051 116.512405Q36.20176 116.512405 35.76426 117.12178Q35.217384 117.90303 35.217384 120.02803ZM41.13926 120.02803Q41.13926 118.49678 41.45176 117.574905Q41.76426 116.637405 42.373634 116.137405Q42.998634 115.637405 43.936134 115.637405Q44.623634 115.637405 45.13926 115.918655Q45.67051 116.199905 46.01426 116.731155Q46.35801 117.24678 46.54551 117.99678Q46.73301 118.74678 46.73301 120.02803Q46.73301 121.543655 46.42051 122.46553Q46.123634 123.387405 45.498634 123.90303Q44.88926 124.40303 43.936134 124.40303Q42.70176 124.40303 41.98301 123.512405Q41.13926 122.449905 41.13926 120.02803ZM42.217384 120.02803Q42.217384 122.137405 42.717384 122.84053Q43.217384 123.543655 43.936134 123.543655Q44.67051 123.543655 45.154884 122.84053Q45.654884 122.137405 45.654884 120.02803Q45.654884 117.90303 45.154884 117.21553Q44.67051 116.512405 43.92051 116.512405Q43.20176 116.512405 42.76426 117.12178Q42.217384 117.90303 42.217384 120.02803ZM48.13926 120.02803Q48.13926 118.49678 48.45176 117.574905Q48.76426 116.637405 49.373634 116.137405Q49.998634 115.637405 50.936134 115.637405Q51.623634 115.637405 52.13926 115.918655Q52.67051 116.199905 53.01426 116.731155Q53.35801 117.24678 53.54551 117.99678Q53.73301 118.74678 53.73301 120.02803Q53.73301 121.543655 53.42051 122.46553Q53.123634 123.387405 52.498634 123.90303Q51.88926 124.40303 50.936134 124.40303Q49.70176 124.40303 48.98301 123.512405Q48.13926 122.449905 48.13926 120.02803ZM49.217384 120.02803Q49.217384 122.137405 49.717384 122.84053Q50.217384 123.543655 50.936134 123.543655Q51.67051 123.543655 52.154884 122.84053Q52.654884 122.137405 52.654884 120.02803Q52.654884 117.90303 52.154884 117.21553Q51.67051 116.512405 50.92051 116.512405Q50.20176 116.512405 49.76426 117.12178Q49.217384 117.90303 49.217384 120.02803ZM55.13926 120.02803Q55.13926 118.49678 55.45176 117.574905Q55.76426 116.637405 56.373634 116.137405Q56.998634 115.637405 57.936134 115.637405Q58.623634 115.637405 59.13926 115.918655Q59.67051 116.199905 60.01426 116.731155Q60.35801 117.24678 60.54551 117.99678Q60.73301 118.74678 60.73301 120.02803Q60.73301 121.543655 60.42051 122.46553Q60.123634 123.387405 59.498634 123.90303Q58.88926 124.40303 57.936134 124.40303Q56.70176 124.40303 55.98301 123.512405Q55.13926 122.449905 55.13926 120.02803ZM56.217384 120.02803Q56.217384 122.137405 56.717384 122.84053Q57.217384 123.543655 57.936134 123.543655Q58.67051 123.543655 59.154884 122.84053Q59.654884 122.137405 59.654884 120.02803Q59.654884 117.90303 59.154884 117.21553Q58.67051 116.512405 57.92051 116.512405Q57.20176 116.512405 56.76426 117.12178Q56.217384 117.90303 56.217384 120.02803Z" fill-rule="nonzero"/><path fill="#000000" d="M48.139256 134.02803Q48.139256 132.49678 48.451756 131.5749Q48.764256 130.6374 49.37363 130.1374Q49.99863 129.6374 50.93613 129.6374Q51.62363 129.6374 52.139256 129.91866Q52.670506 130.1999 53.014256 130.73116Q53.358006 131.24678 53.545506 131.99678Q53.733006 132.74678 53.733006 134.02803Q53.733006 135.54366 53.420506 136.46553Q53.12363 137.3874 52.49863 137.90303Q51.889256 138.40303 50.93613 138.40303Q49.701756 138.40303 48.983006 137.5124Q48.139256 136.4499 48.139256 134.02803ZM49.21738 134.02803Q49.21738 136.1374 49.71738 136.84053Q50.21738 137.54366 50.93613 137.54366Q51.670506 137.54366 52.15488 136.84053Q52.65488 136.1374 52.65488 134.02803Q52.65488 131.90303 52.15488 131.21553Q51.670506 130.5124 50.920506 130.5124Q50.201756 130.5124 49.764256 131.12178Q49.21738 131.90303 49.21738 134.02803ZM55.139256 134.02803Q55.139256 132.49678 55.451756 131.5749Q55.764256 130.6374 56.37363 130.1374Q56.99863 129.6374 57.93613 129.6374Q58.62363 129.6374 59.139256 129.91866Q59.670506 130.1999 60.014256 130.73116Q60.358006 131.24678 60.545506 131.99678Q60.733006 132.74678 60.733006 134.02803Q60.733006 135.54366 60.420506 136.46553Q60.12363 137.3874 59.49863 137.90303Q58.889256 138.40303 57.93613 138.40303Q56.701756 138.40303 55.983006 137.5124Q55.139256 136.4499 55.139256 134.02803ZM56.21738 134.02803Q56.21738 136.1374 56.71738 136.84053Q57.21738 137.54366 57.93613 137.54366Q58.670506 137.54366 59.15488 136.84053Q59.65488 136.1374 59.65488 134.02803Q59.65488 131.90303 59.15488 131.21553Q58.670506 130.5124 57.920506 130.5124Q57.201756 130.5124 56.764256 131.12178Q56.21738 131.90303 56.21738 134.02803Z" fill-rule="nonzero"/><path fill="#000000" d="M30.514257 62.431625L30.514257 60.369125L26.795507 60.369125L26.795507 59.400375L30.717382 53.837875L31.576757 53.837875L31.576757 59.400375L32.73301 59.400375L32.73301 60.369125L31.576757 60.369125L31.576757 62.431625L30.514257 62.431625ZM30.514257 59.400375L30.514257 55.541L27.826757 59.400375L30.514257 59.400375ZM34.13926 58.19725Q34.13926 56.666 34.45176 55.744125Q34.76426 54.806625 35.373634 54.306625Q35.998634 53.806625 36.936134 53.806625Q37.623634 53.806625 38.13926 54.087875Q38.67051 54.369125 39.01426 54.900375Q39.35801 55.416 39.54551 56.166Q39.73301 56.916 39.73301 58.19725Q39.73301 59.712875 39.42051 60.63475Q39.123634 61.556625 38.498634 62.07225Q37.88926 62.57225 36.936134 62.57225Q35.70176 62.57225 34.98301 61.681625Q34.13926 60.619125 34.13926 58.19725ZM35.217384 58.19725Q35.217384 60.306625 35.717384 61.00975Q36.217384 61.712875 36.936134 61.712875Q37.67051 61.712875 38.154884 61.00975Q38.654884 60.306625 38.654884 58.19725Q38.654884 56.07225 38.154884 55.38475Q37.67051 54.681625 36.92051 54.681625Q36.20176 54.681625 35.76426 55.291Q35.217384 56.07225 35.217384 58.19725ZM41.13926 58.19725Q41.13926 56.666 41.45176 55.744125Q41.76426 54.806625 42.373634 54.306625Q42.998634 53.806625 43.936134 53.806625Q44.623634 53.806625 45.13926 54.087875Q45.67051 54.369125 46.01426 54.900375Q46.35801 55.416 46.54551 56.166Q46.73301 56.916 46.73301 58.19725Q46.73301 59.712875 46.42051 60.63475Q46.123634 61.556625 45.498634 62.07225Q44.88926 62.57225 43.936134 62.57225Q42.70176 62.57225 41.98301 61.681625Q41.13926 60.619125 41.13926 58.19725ZM42.217384 58.19725Q42.217384 60.306625 42.717384 61.00975Q43.217384 61.712875 43.936134 61.712875Q44.67051 61.712875 45.154884 61.00975Q45.654884 60.306625 45.654884 58.19725Q45.654884 56.07225 45.154884 55.38475Q44.67051 54.681625 43.92051 54.681625Q43.20176 54.681625 42.76426 55.291Q42.217384 56.07225 42.217384 58.19725ZM48.13926 58.19725Q48.13926 56.666 48.45176 55.744125Q48.76426 54.806625 49.373634 54.306625Q49.998634 53.806625 50.936134 53.806625Q51.623634 53.806625 52.13926 54.087875Q52.67051 54.369125 53.01426 54.900375Q53.35801 55.416 53.54551 56.166Q53.73301 56.916 53.73301 58.19725Q53.73301 59.712875 53.42051 60.63475Q53.123634 61.556625 52.498634 62.07225Q51.88926 62.57225 50.936134 62.57225Q49.70176 62.57225 48.98301 61.681625Q48.13926 60.619125 48.13926 58.19725ZM49.217384 58.19725Q49.217384 60.306625 49.717384 61.00975Q50.217384 61.712875 50.936134 61.712875Q51.67051 61.712875 52.154884 61.00975Q52.654884 60.306625 52.654884 58.19725Q52.654884 56.07225 52.154884 55.38475Q51.67051 54.681625 50.92051 54.681625Q50.20176 54.681625 49.76426 55.291Q49.217384 56.07225 49.217384 58.19725ZM55.13926 58.19725Q55.13926 56.666 55.45176 55.744125Q55.76426 54.806625 56.373634 54.306625Q56.998634 53.806625 57.936134 53.806625Q58.623634 53.806625 59.13926 54.087875Q59.67051 54.369125 60.01426 54.900375Q60.35801 55.416 60.54551 56.166Q60.73301 56.916 60.73301 58.19725Q60.73301 59.712875 60.42051 60.63475Q60.123634 61.556625 59.498634 62.07225Q58.88926 62.57225 57.936134 62.57225Q56.70176 62.57225 55.98301 61.681625Q55.13926 60.619125 55.13926 58.19725ZM56.217384 58.19725Q56.217384 60.306625 56.717384 61.00975Q57.217384 61.712875 57.936134 61.712875Q58.67051 61.712875 59.154884 61.00975Q59.654884 60.306625 59.654884 58.19725Q59.654884 56.07225 59.154884 55.38475Q58.67051 54.681625 57.92051 54.681625Q57.20176 54.681625 56.76426 55.291Q56.217384 56.07225 56.217384 58.19725Z" fill-rule="nonzero"/><path fill="#000000" d="M48.139256 72.19725Q48.139256 70.666 48.451756 69.744125Q48.764256 68.806625 49.37363 68.306625Q49.99863 67.806625 50.93613 67.806625Q51.62363 67.806625 52.139256 68.087875Q52.670506 68.369125 53.014256 68.900375Q53.358006 69.416 53.545506 70.166Q53.733006 70.916 53.733006 72.19725Q53.733006 73.712875 53.420506 74.63475Q53.12363 75.556625 52.49863 76.07225Q51.889256 76.57225 50.93613 76.57225Q49.701756 76.57225 48.983006 75.681625Q48.139256 74.619125 48.139256 72.19725ZM49.21738 72.19725Q49.21738 74.306625 49.71738 75.00975Q50.21738 75.712875 50.93613 75.712875Q51.670506 75.712875 52.15488 75.00975Q52.65488 74.306625 52.65488 72.19725Q52.65488 70.07225 52.15488 69.38475Q51.670506 68.681625 50.920506 68.681625Q50.201756 68.681625 49.764256 69.291Q49.21738 70.07225 49.21738 72.19725ZM55.139256 72.19725Q55.139256 70.666 55.451756 69.744125Q55.764256 68.806625 56.37363 68.306625Q56.99863 67.806625 57.93613 67.806625Q58.62363 67.806625 59.139256 68.087875Q59.670506 68.369125 60.014256 68.900375Q60.358006 69.416 60.545506 70.166Q60.733006 70.916 60.733006 72.19725Q60.733006 73.712875 60.420506 74.63475Q60.12363 75.556625 59.49863 76.07225Q58.889256 76.57225 57.93613 76.57225Q56.701756 76.57225 55.983006 75.681625Q55.139256 74.619125 55.139256 72.19725ZM56.21738 72.19725Q56.21738 74.306625 56.71738 75.00975Q57.21738 75.712875 57.93613 75.712875Q58.670506 75.712875 59.15488 75.00975Q59.65488 74.306625 59.65488 72.19725Q59.65488 70.07225 59.15488 69.38475Q58.670506 68.681625 57.920506 68.681625Q57.201756 68.681625 56.764256 69.291Q56.21738 70.07225 56.21738 72.19725Z" fill-rule="nonzero"/><path fill="#000000" d="M67.975174 325.5204Q67.975174 323.98914 68.287674 323.06726Q68.600174 322.12976 69.20955 321.62976Q69.83455 321.12976 70.77205 321.12976Q71.45955 321.12976 71.975174 321.411Q72.506424 321.69226 72.850174 322.2235Q73.193924 322.73914 73.381424 323.48914Q73.568924 324.23914 73.568924 325.5204Q73.568924 327.036 73.256424 327.9579Q72.95955 328.87976 72.33455 329.3954Q71.725174 329.8954 70.77205 329.8954Q69.537674 329.8954 68.818924 329.00476Q67.975174 327.94226 67.975174 325.5204ZM69.0533 325.5204Q69.0533 327.62976 69.5533 328.3329Q70.0533 329.036 70.77205 329.036Q71.506424 329.036 71.9908 328.3329Q72.4908 327.62976 72.4908 325.5204Q72.4908 323.3954 71.9908 322.7079Q71.506424 322.00476 70.756424 322.00476Q70.037674 322.00476 69.600174 322.61414Q69.0533 323.3954 69.0533 325.5204Z" fill-rule="nonzero"/><path fill="#000000" d="M164.34732 329.75476L163.30045 329.75476L163.30045 323.036Q162.90982 323.3954 162.28482 323.7704Q161.67545 324.12976 161.19107 324.30164L161.19107 323.286Q162.06607 322.86414 162.72232 322.286Q163.3942 321.69226 163.67545 321.12976L164.34732 321.12976L164.34732 329.75476ZM167.37857 325.5204Q167.37857 323.98914 167.69107 323.06726Q168.00357 322.12976 168.61295 321.62976Q169.23795 321.12976 170.17545 321.12976Q170.86295 321.12976 171.37857 321.411Q171.90982 321.69226 172.25357 322.2235Q172.59732 322.73914 172.78482 323.48914Q172.97232 324.23914 172.97232 325.5204Q172.97232 327.036 172.65982 327.9579Q172.36295 328.87976 171.73795 329.3954Q171.12857 329.8954 170.17545 329.8954Q168.94107 329.8954 168.22232 329.00476Q167.37857 327.94226 167.37857 325.5204ZM168.4567 325.5204Q168.4567 327.62976 168.9567 328.3329Q169.4567 329.036 170.17545 329.036Q170.90982 329.036 171.3942 328.3329Q171.8942 327.62976 171.8942 325.5204Q171.8942 323.3954 171.3942 322.7079Q170.90982 322.00476 170.15982 322.00476Q169.44107 322.00476 169.00357 322.61414Q168.4567 323.3954 168.4567 325.5204ZM174.37857 325.5204Q174.37857 323.98914 174.69107 323.06726Q175.00357 322.12976 175.61295 321.62976Q176.23795 321.12976 177.17545 321.12976Q177.86295 321.12976 178.37857 321.411Q178.90982 321.69226 179.25357 322.2235Q179.59732 322.73914 179.78482 323.48914Q179.97232 324.23914 179.97232 325.5204Q179.97232 327.036 179.65982 327.9579Q179.36295 328.87976 178.73795 329.3954Q178.12857 329.8954 177.17545 329.8954Q175.94107 329.8954 175.22232 329.00476Q174.37857 327.94226 174.37857 325.5204ZM175.4567 325.5204Q175.4567 327.62976 175.9567 328.3329Q176.4567 329.036 177.17545 329.036Q177.90982 329.036 178.3942 328.3329Q178.8942 327.62976 178.8942 325.5204Q178.8942 323.3954 178.3942 322.7079Q177.90982 322.00476 177.15982 322.00476Q176.44107 322.00476 176.00357 322.61414Q175.4567 323.3954 175.4567 325.5204Z" fill-rule="nonzero"/><path fill="#000000" d="M265.32886 328.73914L265.32886 329.75476L259.64136 329.75476Q259.64136 329.37976 259.76636 329.0204Q259.9851 328.44226 260.45386 327.87976Q260.93823 327.31726 261.84448 326.5829Q263.25073 325.42664 263.7351 324.75476Q264.2351 324.0829 264.2351 323.48914Q264.2351 322.86414 263.78198 322.44226Q263.32886 322.00476 262.6101 322.00476Q261.84448 322.00476 261.39136 322.4579Q260.93823 322.911 260.9226 323.7235L259.84448 323.61414Q259.95386 322.3954 260.6726 321.7704Q261.40698 321.12976 262.64136 321.12976Q263.87573 321.12976 264.59448 321.81726Q265.31323 322.50476 265.31323 323.5204Q265.31323 324.036 265.09448 324.536Q264.89136 325.0204 264.39136 325.5829Q263.90698 326.12976 262.78198 327.0829Q261.82886 327.87976 261.5476 328.17664Q261.28198 328.4579 261.1101 328.73914L265.32886 328.73914ZM266.78198 325.5204Q266.78198 323.98914 267.09448 323.06726Q267.40698 322.12976 268.01636 321.62976Q268.64136 321.12976 269.57886 321.12976Q270.26636 321.12976 270.78198 321.411Q271.31323 321.69226 271.65698 322.2235Q272.00073 322.73914 272.18823 323.48914Q272.37573 324.23914 272.37573 325.5204Q272.37573 327.036 272.06323 327.9579Q271.76636 328.87976 271.14136 329.3954Q270.53198 329.8954 269.57886 329.8954Q268.34448 329.8954 267.62573 329.00476Q266.78198 327.94226 266.78198 325.5204ZM267.8601 325.5204Q267.8601 327.62976 268.3601 328.3329Q268.8601 329.036 269.57886 329.036Q270.31323 329.036 270.7976 328.3329Q271.2976 327.62976 271.2976 325.5204Q271.2976 323.3954 270.7976 322.7079Q270.31323 322.00476 269.56323 322.00476Q268.84448 322.00476 268.40698 322.61414Q267.8601 323.3954 267.8601 325.5204ZM273.78198 325.5204Q273.78198 323.98914 274.09448 323.06726Q274.40698 322.12976 275.01636 321.62976Q275.64136 321.12976 276.57886 321.12976Q277.26636 321.12976 277.78198 321.411Q278.31323 321.69226 278.65698 322.2235Q279.00073 322.73914 279.18823 323.48914Q279.37573 324.23914 279.37573 325.5204Q279.37573 327.036 279.06323 327.9579Q278.76636 328.87976 278.14136 329.3954Q277.53198 329.8954 276.57886 329.8954Q275.34448 329.8954 274.62573 329.00476Q273.78198 327.94226 273.78198 325.5204ZM274.8601 325.5204Q274.8601 327.62976 275.3601 328.3329Q275.8601 329.036 276.57886 329.036Q277.31323 329.036 277.7976 328.3329Q278.2976 327.62976 278.2976 325.5204Q278.2976 323.3954 277.7976 322.7079Q277.31323 322.00476 276.56323 322.00476Q275.84448 322.00476 275.40698 322.61414Q274.8601 323.3954 274.8601 325.5204Z" fill-rule="nonzero"/><path fill="#000000" d="M359.18536 327.48914L360.24786 327.3485Q360.41974 328.23914 360.85724 328.6454Q361.29474 329.036 361.91974 329.036Q362.66974 329.036 363.18536 328.5204Q363.701 328.00476 363.701 327.23914Q363.701 326.5204 363.2166 326.05164Q362.74786 325.56726 362.0135 325.56726Q361.7166 325.56726 361.2635 325.69226L361.3885 324.75476Q361.49786 324.7704 361.56036 324.7704Q362.23224 324.7704 362.7635 324.42664Q363.31036 324.06726 363.31036 323.3329Q363.31036 322.75476 362.91974 322.37976Q362.5291 321.98914 361.9041 321.98914Q361.29474 321.98914 360.87286 322.37976Q360.4666 322.7704 360.35724 323.536L359.29474 323.3485Q359.48224 322.30164 360.16974 321.7235Q360.85724 321.12976 361.87286 321.12976Q362.576 321.12976 363.16974 321.44226Q363.7635 321.73914 364.076 322.25476Q364.3885 322.7704 364.3885 323.36414Q364.3885 323.911 364.0916 324.37976Q363.79474 324.8329 363.2166 325.0985Q363.9666 325.2704 364.3885 325.8329Q364.81036 326.37976 364.81036 327.2235Q364.81036 328.3485 363.98224 329.12976Q363.16974 329.911 361.91974 329.911Q360.79474 329.911 360.04474 329.23914Q359.29474 328.55164 359.18536 327.48914ZM366.18536 325.5204Q366.18536 323.98914 366.49786 323.06726Q366.81036 322.12976 367.41974 321.62976Q368.04474 321.12976 368.98224 321.12976Q369.66974 321.12976 370.18536 321.411Q370.7166 321.69226 371.06036 322.2235Q371.4041 322.73914 371.5916 323.48914Q371.7791 324.23914 371.7791 325.5204Q371.7791 327.036 371.4666 327.9579Q371.16974 328.87976 370.54474 329.3954Q369.93536 329.8954 368.98224 329.8954Q367.74786 329.8954 367.0291 329.00476Q366.18536 327.94226 366.18536 325.5204ZM367.2635 325.5204Q367.2635 327.62976 367.7635 328.3329Q368.2635 329.036 368.98224 329.036Q369.7166 329.036 370.201 328.3329Q370.701 327.62976 370.701 325.5204Q370.701 323.3954 370.201 322.7079Q369.7166 322.00476 368.9666 322.00476Q368.24786 322.00476 367.81036 322.61414Q367.2635 323.3954 367.2635 325.5204ZM373.18536 325.5204Q373.18536 323.98914 373.49786 323.06726Q373.81036 322.12976 374.41974 321.62976Q375.04474 321.12976 375.98224 321.12976Q376.66974 321.12976 377.18536 321.411Q377.7166 321.69226 378.06036 322.2235Q378.4041 322.73914 378.5916 323.48914Q378.7791 324.23914 378.7791 325.5204Q378.7791 327.036 378.4666 327.9579Q378.16974 328.87976 377.54474 329.3954Q376.93536 329.8954 375.98224 329.8954Q374.74786 329.8954 374.0291 329.00476Q373.18536 327.94226 373.18536 325.5204ZM374.2635 325.5204Q374.2635 327.62976 374.7635 328.3329Q375.2635 329.036 375.98224 329.036Q376.7166 329.036 377.201 328.3329Q377.701 327.62976 377.701 325.5204Q377.701 323.3954 377.201 322.7079Q376.7166 322.00476 375.9666 322.00476Q375.24786 322.00476 374.81036 322.61414Q374.2635 323.3954 374.2635 325.5204Z" fill-rule="nonzero"/><path fill="#000000" d="M461.96378 329.75476L461.96378 327.69226L458.24503 327.69226L458.24503 326.7235L462.1669 321.161L463.02628 321.161L463.02628 326.7235L464.18253 326.7235L464.18253 327.69226L463.02628 327.69226L463.02628 329.75476L461.96378 329.75476ZM461.96378 326.7235L461.96378 322.86414L459.27628 326.7235L461.96378 326.7235ZM465.58878 325.5204Q465.58878 323.98914 465.90128 323.06726Q466.21378 322.12976 466.82315 321.62976Q467.44815 321.12976 468.38565 321.12976Q469.07315 321.12976 469.58878 321.411Q470.12003 321.69226 470.46378 322.2235Q470.80753 322.73914 470.99503 323.48914Q471.18253 324.23914 471.18253 325.5204Q471.18253 327.036 470.87003 327.9579Q470.57315 328.87976 469.94815 329.3954Q469.33878 329.8954 468.38565 329.8954Q467.15128 329.8954 466.43253 329.00476Q465.58878 327.94226 465.58878 325.5204ZM466.6669 325.5204Q466.6669 327.62976 467.1669 328.3329Q467.6669 329.036 468.38565 329.036Q469.12003 329.036 469.6044 328.3329Q470.1044 327.62976 470.1044 325.5204Q470.1044 323.3954 469.6044 322.7079Q469.12003 322.00476 468.37003 322.00476Q467.65128 322.00476 467.21378 322.61414Q466.6669 323.3954 466.6669 325.5204ZM472.58878 325.5204Q472.58878 323.98914 472.90128 323.06726Q473.21378 322.12976 473.82315 321.62976Q474.44815 321.12976 475.38565 321.12976Q476.07315 321.12976 476.58878 321.411Q477.12003 321.69226 477.46378 322.2235Q477.80753 322.73914 477.99503 323.48914Q478.18253 324.23914 478.18253 325.5204Q478.18253 327.036 477.87003 327.9579Q477.57315 328.87976 476.94815 329.3954Q476.33878 329.8954 475.38565 329.8954Q474.15128 329.8954 473.43253 329.00476Q472.58878 327.94226 472.58878 325.5204ZM473.6669 325.5204Q473.6669 327.62976 474.1669 328.3329Q474.6669 329.036 475.38565 329.036Q476.12003 329.036 476.6044 328.3329Q477.1044 327.62976 477.1044 325.5204Q477.1044 323.3954 476.6044 322.7079Q476.12003 322.00476 475.37003 322.00476Q474.65128 322.00476 474.21378 322.61414Q473.6669 323.3954 473.6669 325.5204Z" fill-rule="nonzero"/><path fill="#000000" d="M557.9922 327.50476L559.10156 327.411Q559.22656 328.2235 559.66406 328.62976Q560.1172 329.036 560.7578 329.036Q561.5078 329.036 562.03906 328.4579Q562.5703 327.87976 562.5703 326.94226Q562.5703 326.036 562.0547 325.5204Q561.5547 324.98914 560.72656 324.98914Q560.22656 324.98914 559.8047 325.2235Q559.39844 325.4579 559.16406 325.81726L558.1797 325.69226L559.0078 321.286L563.28906 321.286L563.28906 322.286L559.85156 322.286L559.39844 324.5985Q560.16406 324.05164 561.0078 324.05164Q562.1328 324.05164 562.89844 324.8329Q563.6797 325.61414 563.6797 326.8485Q563.6797 328.00476 563.0078 328.86414Q562.1797 329.8954 560.7578 329.8954Q559.58594 329.8954 558.83594 329.23914Q558.10156 328.5829 557.9922 327.50476ZM564.9922 325.5204Q564.9922 323.98914 565.3047 323.06726Q565.6172 322.12976 566.22656 321.62976Q566.85156 321.12976 567.78906 321.12976Q568.47656 321.12976 568.9922 321.411Q569.52344 321.69226 569.8672 322.2235Q570.21094 322.73914 570.39844 323.48914Q570.58594 324.23914 570.58594 325.5204Q570.58594 327.036 570.27344 327.9579Q569.97656 328.87976 569.35156 329.3954Q568.7422 329.8954 567.78906 329.8954Q566.5547 329.8954 565.83594 329.00476Q564.9922 327.94226 564.9922 325.5204ZM566.0703 325.5204Q566.0703 327.62976 566.5703 328.3329Q567.0703 329.036 567.78906 329.036Q568.52344 329.036 569.0078 328.3329Q569.5078 327.62976 569.5078 325.5204Q569.5078 323.3954 569.0078 322.7079Q568.52344 322.00476 567.77344 322.00476Q567.0547 322.00476 566.6172 322.61414Q566.0703 323.3954 566.0703 325.5204ZM571.9922 325.5204Q571.9922 323.98914 572.3047 323.06726Q572.6172 322.12976 573.22656 321.62976Q573.85156 321.12976 574.78906 321.12976Q575.47656 321.12976 575.9922 321.411Q576.52344 321.69226 576.8672 322.2235Q577.21094 322.73914 577.39844 323.48914Q577.58594 324.23914 577.58594 325.5204Q577.58594 327.036 577.27344 327.9579Q576.97656 328.87976 576.35156 329.3954Q575.7422 329.8954 574.78906 329.8954Q573.5547 329.8954 572.83594 329.00476Q571.9922 327.94226 571.9922 325.5204ZM573.0703 325.5204Q573.0703 327.62976 573.5703 328.3329Q574.0703 329.036 574.78906 329.036Q575.52344 329.036 576.0078 328.3329Q576.5078 327.62976 576.5078 325.5204Q576.5078 323.3954 576.0078 322.7079Q575.52344 322.00476 574.77344 322.00476Q574.0547 322.00476 573.6172 322.61414Q573.0703 323.3954 573.0703 325.5204Z" fill-rule="nonzero"/><path fill="#1c4587" d="M145.16867 51.11509L150.36482 54.11509L150.36482 60.11509L145.16867 63.11509L139.97252 60.11509L139.97252 54.11509Z" fill-rule="nonzero"/><path stroke="#1c4587" stroke-width="4.0" stroke-linecap="butt" stroke-opacity="0.4" d="M167.16867 57.11509L179.16867 57.11509" fill-rule="nonzero"/><path fill="#1a1a1a" d="M187.71555 61.11509L189.51242 52.52134L195.09055 52.52134L194.88742 53.505714L190.44992 53.505714L189.88742 56.24009L194.40305 56.24009L194.19992 57.224464L189.6843 57.224464L188.85617 61.11509L187.71555 61.11509ZM194.85617 61.11509L196.65305 52.52134L197.79367 52.52134L195.9968 61.11509L194.85617 61.11509ZM197.71555 61.11509L199.51242 52.52134L205.09055 52.52134L204.88742 53.505714L200.44992 53.505714L199.88742 56.24009L204.40305 56.24009L204.19992 57.224464L199.6843 57.224464L198.85617 61.11509L197.71555 61.11509ZM205.26242 57.52134Q205.26242 55.224464 206.59055 53.80259Q207.91867 52.380714 209.8093 52.380714Q211.41867 52.380714 212.41867 53.42759Q213.4343 54.474464 213.4343 56.224464Q213.4343 57.474464 212.9343 58.55259Q212.54367 59.349464 211.96555 59.943214Q211.38742 60.52134 210.73117 60.83384Q209.84055 61.255714 208.85617 61.255714Q207.82492 61.255714 206.98117 60.77134Q206.13742 60.27134 205.69992 59.39634Q205.26242 58.505714 205.26242 57.52134ZM206.40305 57.568214Q206.40305 58.33384 206.71555 58.974464Q207.02805 59.599464 207.63742 59.95884Q208.26242 60.318214 208.94992 60.318214Q209.60617 60.318214 210.19992 60.005714Q210.8093 59.67759 211.27805 59.130714Q211.7468 58.568214 212.01242 57.755714Q212.29367 56.92759 212.29367 56.14634Q212.29367 54.849464 211.57492 54.099464Q210.85617 53.33384 209.8093 53.33384Q208.46555 53.33384 207.4343 54.49009Q206.40305 55.630714 206.40305 57.568214Z" fill-rule="nonzero"/><path fill="#ea4335" d="M235.16867 51.11509L236.51575 55.260986L240.875 55.260986L237.3483 57.823296L238.69537 61.969193L235.16867 59.406887L231.64195 61.969193L232.98904 57.823296L229.46233 55.260986L233.82158 55.260986Z" fill-rule="nonzero"/><path stroke="#ea4335" stroke-width="4.0" stroke-linecap="butt" stroke-opacity="0.4" d="M257.16867 57.11509L269.16867 57.11509" fill-rule="nonzero"/><path fill="#1a1a1a" d="M278.01242 58.33384L279.13742 58.224464L279.1218 58.536964Q279.1218 59.02134 279.35617 59.443214Q279.59055 59.849464 280.10617 60.08384Q280.63742 60.30259 281.3718 60.30259Q282.40305 60.30259 282.9343 59.849464Q283.48117 59.39634 283.48117 58.818214Q283.48117 58.411964 283.19992 58.08384Q282.90305 57.755714 281.59055 57.193214Q280.57492 56.755714 280.21555 56.52134Q279.63742 56.14634 279.35617 55.693214Q279.07492 55.24009 279.07492 54.661964Q279.07492 54.005714 279.4343 53.474464Q279.8093 52.943214 280.4968 52.661964Q281.19992 52.380714 282.09055 52.380714Q283.13742 52.380714 283.85617 52.74009Q284.57492 53.08384 284.90305 53.67759Q285.23117 54.255714 285.23117 54.786964Q285.23117 54.83384 285.21555 54.95884L284.10617 55.05259Q284.10617 54.693214 284.04367 54.474464Q283.9343 54.130714 283.6843 53.880714Q283.4343 53.630714 282.9968 53.49009Q282.57492 53.33384 282.04367 53.33384Q281.10617 53.33384 280.59055 53.755714Q280.1843 54.08384 280.1843 54.61509Q280.1843 54.92759 280.34055 55.17759Q280.51242 55.42759 280.94992 55.661964Q281.2468 55.83384 282.38742 56.33384Q283.3093 56.755714 283.66867 56.99009Q284.13742 57.286964 284.38742 57.74009Q284.63742 58.17759 284.63742 58.74009Q284.63742 59.443214 284.21555 60.036964Q283.79367 60.61509 283.04367 60.943214Q282.29367 61.255714 281.32492 61.255714Q279.8718 61.255714 278.9343 60.630714Q278.01242 59.99009 278.01242 58.33384ZM290.13742 59.005714L291.16867 59.099464Q290.94992 59.86509 290.13742 60.568214Q289.34055 61.255714 288.2468 61.255714Q287.54367 61.255714 286.96555 60.943214Q286.38742 60.61509 286.09055 60.005714Q285.79367 59.39634 285.79367 58.61509Q285.79367 57.599464 286.26242 56.64634Q286.73117 55.67759 287.48117 55.224464Q288.23117 54.755714 289.10617 54.755714Q290.21555 54.755714 290.8718 55.443214Q291.54367 56.130714 291.54367 57.33384Q291.54367 57.786964 291.46555 58.27134L286.88742 58.27134Q286.85617 58.443214 286.85617 58.599464Q286.85617 59.474464 287.26242 59.92759Q287.66867 60.380714 288.2468 60.380714Q288.79367 60.380714 289.3093 60.036964Q289.84055 59.67759 290.13742 59.005714ZM287.0593 57.45884L290.54367 57.45884Q290.5593 57.286964 290.5593 57.224464Q290.5593 56.42759 290.15305 56.005714Q289.76242 55.58384 289.13742 55.58384Q288.44992 55.58384 287.88742 56.05259Q287.32492 56.52134 287.0593 57.45884ZM296.85617 58.849464L297.91867 58.95884Q297.52805 60.130714 296.79367 60.693214Q296.0593 61.255714 295.1218 61.255714Q294.10617 61.255714 293.46555 60.599464Q292.84055 59.943214 292.84055 58.77134Q292.84055 57.74009 293.2468 56.755714Q293.65305 55.77134 294.40305 55.27134Q295.15305 54.755714 296.1218 54.755714Q297.1218 54.755714 297.69992 55.318214Q298.29367 55.880714 298.29367 56.818214L297.26242 56.880714Q297.2468 56.286964 296.90305 55.95884Q296.57492 55.630714 296.02805 55.630714Q295.38742 55.630714 294.91867 56.036964Q294.44992 56.42759 294.1843 57.255714Q293.91867 58.08384 293.91867 58.83384Q293.91867 59.630714 294.26242 60.036964Q294.6218 60.42759 295.13742 60.42759Q295.65305 60.42759 296.1218 60.036964Q296.59055 59.64634 296.85617 58.849464ZM298.76242 58.755714Q298.76242 56.92759 299.82492 55.74009Q300.71555 54.755714 302.15305 54.755714Q303.27805 54.755714 303.96555 55.45884Q304.65305 56.161964 304.65305 57.349464Q304.65305 58.42759 304.21555 59.349464Q303.77805 60.27134 302.98117 60.77134Q302.1843 61.255714 301.29367 61.255714Q300.57492 61.255714 299.98117 60.943214Q299.38742 60.630714 299.07492 60.068214Q298.76242 59.49009 298.76242 58.755714ZM299.8093 58.64634Q299.8093 59.52134 300.23117 59.974464Q300.65305 60.42759 301.3093 60.42759Q301.65305 60.42759 301.98117 60.30259Q302.32492 60.161964 302.60617 59.880714Q302.88742 59.599464 303.09055 59.24009Q303.29367 58.880714 303.41867 58.45884Q303.60617 57.880714 303.60617 57.349464Q303.60617 56.505714 303.16867 56.036964Q302.7468 55.568214 302.10617 55.568214Q301.60617 55.568214 301.19992 55.818214Q300.79367 56.05259 300.44992 56.505714Q300.1218 56.95884 299.96555 57.568214Q299.8093 58.17759 299.8093 58.64634ZM305.57492 61.11509L306.8718 54.89634L307.82492 54.89634L307.60617 55.974464Q308.23117 55.33384 308.77805 55.05259Q309.32492 54.755714 309.88742 54.755714Q310.63742 54.755714 311.0593 55.161964Q311.4968 55.568214 311.4968 56.255714Q311.4968 56.599464 311.35617 57.349464L310.5593 61.11509L309.4968 61.11509L310.32492 57.17759Q310.44992 56.599464 310.44992 56.318214Q310.44992 56.005714 310.23117 55.818214Q310.02805 55.630714 309.6218 55.630714Q308.8093 55.630714 308.16867 56.224464Q307.52805 56.80259 307.23117 58.224464L306.6218 61.11509L305.57492 61.11509ZM316.76242 60.20884Q315.85617 61.255714 314.8718 61.255714Q313.98117 61.255714 313.38742 60.599464Q312.8093 59.943214 312.8093 58.70884Q312.8093 57.568214 313.26242 56.630714Q313.73117 55.693214 314.4343 55.224464Q315.13742 54.755714 315.84055 54.755714Q316.9968 54.755714 317.59055 55.86509L318.29367 52.52134L319.34055 52.52134L317.5593 61.11509L316.57492 61.11509L316.76242 60.20884ZM313.85617 58.505714Q313.85617 59.161964 313.98117 59.536964Q314.1218 59.911964 314.41867 60.161964Q314.73117 60.411964 315.16867 60.411964Q315.88742 60.411964 316.48117 59.661964Q317.26242 58.661964 317.26242 57.193214Q317.26242 56.45884 316.8718 56.05259Q316.48117 55.630714 315.90305 55.630714Q315.52805 55.630714 315.19992 55.80259Q314.88742 55.95884 314.57492 56.36509Q314.27805 56.77134 314.0593 57.411964Q313.85617 58.036964 313.85617 58.505714ZM329.40305 58.08384L330.54367 58.255714Q329.9968 59.74009 328.96555 60.505714Q327.9343 61.255714 326.65305 61.255714Q325.09055 61.255714 324.16867 60.30259Q323.26242 59.349464 323.26242 57.568214Q323.26242 55.255714 324.65305 53.724464Q325.90305 52.380714 327.7468 52.380714Q329.10617 52.380714 329.94992 53.11509Q330.79367 53.849464 330.9343 55.08384L329.85617 55.17759Q329.69992 54.24009 329.16867 53.786964Q328.63742 53.33384 327.79367 53.33384Q326.21555 53.33384 325.2468 54.724464Q324.40305 55.92759 324.40305 57.599464Q324.40305 58.911964 325.04367 59.61509Q325.69992 60.318214 326.7468 60.318214Q327.63742 60.318214 328.35617 59.74009Q329.07492 59.14634 329.40305 58.08384ZM331.57492 61.11509L333.35617 52.52134L334.41867 52.52134L333.73117 55.818214Q334.32492 55.255714 334.82492 55.005714Q335.34055 54.755714 335.88742 54.755714Q336.65305 54.755714 337.07492 55.161964Q337.51242 55.568214 337.51242 56.24009Q337.51242 56.568214 337.32492 57.443214L336.5593 61.11509L335.4968 61.11509L336.29367 57.349464Q336.46555 56.52134 336.46555 56.318214Q336.46555 56.005714 336.2468 55.818214Q336.04367 55.630714 335.63742 55.630714Q335.0593 55.630714 334.54367 55.92759Q334.02805 56.224464 333.73117 56.755714Q333.4343 57.27134 333.1843 58.443214L332.6218 61.11509L331.57492 61.11509ZM342.76242 60.33384Q342.21555 60.818214 341.69992 61.036964Q341.19992 61.255714 340.60617 61.255714Q339.7468 61.255714 339.21555 60.755714Q338.69992 60.24009 338.69992 59.443214Q338.69992 58.92759 338.9343 58.536964Q339.16867 58.130714 339.5593 57.89634Q339.94992 57.64634 340.52805 57.536964Q340.88742 57.45884 341.88742 57.42759Q342.88742 57.380714 343.3093 57.20884Q343.4343 56.77134 343.4343 56.49009Q343.4343 56.11509 343.16867 55.911964Q342.79367 55.61509 342.09055 55.61509Q341.41867 55.61509 340.9968 55.911964Q340.57492 56.20884 340.3718 56.755714L339.3093 56.661964Q339.63742 55.74009 340.34055 55.255714Q341.0593 54.755714 342.13742 54.755714Q343.29367 54.755714 343.96555 55.30259Q344.48117 55.70884 344.48117 56.36509Q344.48117 56.86509 344.34055 57.52134L343.9968 59.068214Q343.82492 59.80259 343.82492 60.27134Q343.82492 60.568214 343.96555 61.11509L342.88742 61.11509Q342.79367 60.80259 342.76242 60.33384ZM343.15305 57.95884Q342.9343 58.05259 342.66867 58.099464Q342.41867 58.14634 341.82492 58.193214Q340.90305 58.27134 340.51242 58.411964Q340.13742 58.536964 339.9343 58.818214Q339.7468 59.08384 339.7468 59.411964Q339.7468 59.86509 340.0593 60.14634Q340.3718 60.42759 340.9343 60.42759Q341.46555 60.42759 341.94992 60.161964Q342.4343 59.880714 342.71555 59.380714Q342.9968 58.880714 343.15305 57.95884ZM345.57492 61.11509L346.8718 54.89634L347.82492 54.89634L347.60617 55.974464Q348.23117 55.33384 348.77805 55.05259Q349.32492 54.755714 349.88742 54.755714Q350.63742 54.755714 351.0593 55.161964Q351.4968 55.568214 351.4968 56.255714Q351.4968 56.599464 351.35617 57.349464L350.5593 61.11509L349.4968 61.11509L350.32492 57.17759Q350.44992 56.599464 350.44992 56.318214Q350.44992 56.005714 350.23117 55.818214Q350.02805 55.630714 349.6218 55.630714Q348.8093 55.630714 348.16867 56.224464Q347.52805 56.80259 347.23117 58.224464L346.6218 61.11509L345.57492 61.11509ZM356.85617 58.849464L357.91867 58.95884Q357.52805 60.130714 356.79367 60.693214Q356.0593 61.255714 355.1218 61.255714Q354.10617 61.255714 353.46555 60.599464Q352.84055 59.943214 352.84055 58.77134Q352.84055 57.74009 353.2468 56.755714Q353.65305 55.77134 354.40305 55.27134Q355.15305 54.755714 356.1218 54.755714Q357.1218 54.755714 357.69992 55.318214Q358.29367 55.880714 358.29367 56.818214L357.26242 56.880714Q357.2468 56.286964 356.90305 55.95884Q356.57492 55.630714 356.02805 55.630714Q355.38742 55.630714 354.91867 56.036964Q354.44992 56.42759 354.1843 57.255714Q353.91867 58.08384 353.91867 58.83384Q353.91867 59.630714 354.26242 60.036964Q354.6218 60.42759 355.13742 60.42759Q355.65305 60.42759 356.1218 60.036964Q356.59055 59.64634 356.85617 58.849464ZM363.13742 59.005714L364.16867 59.099464Q363.94992 59.86509 363.13742 60.568214Q362.34055 61.255714 361.2468 61.255714Q360.54367 61.255714 359.96555 60.943214Q359.38742 60.61509 359.09055 60.005714Q358.79367 59.39634 358.79367 58.61509Q358.79367 57.599464 359.26242 56.64634Q359.73117 55.67759 360.48117 55.224464Q361.23117 54.755714 362.10617 54.755714Q363.21555 54.755714 363.8718 55.443214Q364.54367 56.130714 364.54367 57.33384Q364.54367 57.786964 364.46555 58.27134L359.88742 58.27134Q359.85617 58.443214 359.85617 58.599464Q359.85617 59.474464 360.26242 59.92759Q360.66867 60.380714 361.2468 60.380714Q361.79367 60.380714 362.3093 60.036964Q362.84055 59.67759 363.13742 59.005714ZM360.0593 57.45884L363.54367 57.45884Q363.5593 57.286964 363.5593 57.224464Q363.5593 56.42759 363.15305 56.005714Q362.76242 55.58384 362.13742 55.58384Q361.44992 55.58384 360.88742 56.05259Q360.32492 56.52134 360.0593 57.45884Z" fill-rule="nonzero"/><path fill="#f1c232" d="M387.16867 51.11509L393.16867 57.11509L387.16867 63.11509L381.16867 57.11509Z" fill-rule="nonzero"/><path stroke="#f1c232" stroke-width="4.0" stroke-linecap="butt" stroke-opacity="0.4" d="M409.16867 57.11509L421.16867 57.11509" fill-rule="nonzero"/><path fill="#1a1a1a" d="M429.65305 61.11509L431.44992 52.52134L432.59055 52.52134L430.9968 60.14634L435.46555 60.14634L435.26242 61.11509L429.65305 61.11509ZM436.73117 61.11509L438.52805 52.52134L442.13742 52.52134Q443.19992 52.52134 443.7468 52.70884Q444.3093 52.880714 444.6218 53.380714Q444.9343 53.86509 444.9343 54.61509Q444.9343 55.661964 444.2468 56.36509Q443.5593 57.05259 442.02805 57.255714Q442.4968 57.599464 442.73117 57.92759Q443.27805 58.693214 443.60617 59.49009L444.26242 61.11509L442.98117 61.11509L442.35617 59.52134Q442.02805 58.64634 441.60617 58.02134Q441.3093 57.568214 440.9968 57.443214Q440.69992 57.30259 440.01242 57.30259L438.6843 57.30259L437.88742 61.11509L436.73117 61.11509ZM438.8718 56.36509L440.46555 56.36509Q441.5593 56.36509 441.88742 56.33384Q442.54367 56.27134 442.94992 56.05259Q443.3718 55.818214 443.60617 55.42759Q443.84055 55.036964 443.84055 54.599464Q443.84055 54.224464 443.66867 53.943214Q443.4968 53.661964 443.21555 53.568214Q442.94992 53.474464 442.27805 53.474464L439.48117 53.474464L438.8718 56.36509ZM447.54367 52.52134L448.69992 52.52134L447.59055 57.80259Q447.46555 58.45884 447.46555 58.77134Q447.46555 59.474464 447.9968 59.89634Q448.54367 60.318214 449.3718 60.318214Q450.02805 60.318214 450.59055 60.02134Q451.16867 59.70884 451.4968 59.130714Q451.82492 58.536964 452.09055 57.255714L453.07492 52.52134L454.21555 52.52134L453.16867 57.568214Q452.90305 58.849464 452.46555 59.61509Q452.02805 60.36509 451.2468 60.818214Q450.46555 61.27134 449.4343 61.27134Q448.46555 61.27134 447.7468 60.943214Q447.04367 60.61509 446.6843 60.05259Q446.32492 59.49009 446.32492 58.77134Q446.32492 58.318214 446.57492 57.20884L447.54367 52.52134Z" fill-rule="nonzero"/><path fill="#757575" d="M13.37171 32.748425L13.37171 18.435925L16.231085 18.435925L19.606085 28.560925Q20.074835 29.9828 20.293585 30.685925Q20.543585 29.904675 21.05921 28.38905L24.481085 18.435925L27.02796 18.435925L27.02796 32.748425L25.21546 32.748425L25.21546 20.76405L21.043585 32.748425L19.34046 32.748425L15.199835 20.560925L15.199835 32.748425L13.37171 32.748425ZM30.74671 32.748425L30.74671 18.435925L32.65296 18.435925L32.65296 32.748425L30.74671 32.748425ZM35.793587 28.154675L37.574837 27.998425Q37.699837 29.060925 38.15296 29.748425Q38.62171 30.435925 39.59046 30.873425Q40.574837 31.2953 41.80921 31.2953Q42.887337 31.2953 43.71546 30.9828Q44.543587 30.654675 44.949837 30.092175Q45.356087 29.529675 45.356087 28.8578Q45.356087 28.185925 44.96546 27.685925Q44.574837 27.185925 43.68421 26.842175Q43.106087 26.6078 41.12171 26.13905Q39.15296 25.6703 38.37171 25.248425Q37.34046 24.717175 36.84046 23.9203Q36.34046 23.123425 36.34046 22.13905Q36.34046 21.0453 36.949837 20.1078Q37.55921 19.1703 38.74671 18.685925Q39.93421 18.185925 41.37171 18.185925Q42.96546 18.185925 44.18421 18.70155Q45.40296 19.217175 46.043587 20.217175Q46.699837 21.20155 46.74671 22.467175L44.93421 22.6078Q44.793587 21.248425 43.949837 20.560925Q43.106087 19.8578 41.449837 19.8578Q39.731087 19.8578 38.93421 20.498425Q38.15296 21.123425 38.15296 21.998425Q38.15296 22.779675 38.71546 23.279675Q39.262337 23.779675 41.574837 24.2953Q43.887337 24.810925 44.74671 25.20155Q45.99671 25.779675 46.59046 26.6703Q47.18421 27.5453 47.18421 28.70155Q47.18421 29.842175 46.52796 30.8578Q45.87171 31.873425 44.637337 32.435925Q43.418587 32.998425 41.887337 32.998425Q39.949837 32.998425 38.637337 32.435925Q37.324837 31.8578 36.574837 30.717175Q35.824837 29.57655 35.793587 28.154675ZM48.793587 28.154675L50.574837 27.998425Q50.699837 29.060925 51.15296 29.748425Q51.62171 30.435925 52.59046 30.873425Q53.574837 31.2953 54.80921 31.2953Q55.887337 31.2953 56.71546 30.9828Q57.543587 30.654675 57.949837 30.092175Q58.356087 29.529675 58.356087 28.8578Q58.356087 28.185925 57.96546 27.685925Q57.574837 27.185925 56.68421 26.842175Q56.106087 26.6078 54.12171 26.13905Q52.15296 25.6703 51.37171 25.248425Q50.34046 24.717175 49.84046 23.9203Q49.34046 23.123425 49.34046 22.13905Q49.34046 21.0453 49.949837 20.1078Q50.55921 19.1703 51.74671 18.685925Q52.93421 18.185925 54.37171 18.185925Q55.96546 18.185925 57.18421 18.70155Q58.40296 19.217175 59.043587 20.217175Q59.699837 21.20155 59.74671 22.467175L57.93421 22.6078Q57.793587 21.248425 56.949837 20.560925Q56.106087 19.8578 54.449837 19.8578Q52.731087 19.8578 51.93421 20.498425Q51.15296 21.123425 51.15296 21.998425Q51.15296 22.779675 51.71546 23.279675Q52.262337 23.779675 54.574837 24.2953Q56.887337 24.810925 57.74671 25.20155Q58.99671 25.779675 59.59046 26.6703Q60.18421 27.5453 60.18421 28.70155Q60.18421 29.842175 59.52796 30.8578Q58.87171 31.873425 57.637337 32.435925Q56.418587 32.998425 54.887337 32.998425Q52.949837 32.998425 51.637337 32.435925Q50.324837 31.8578 49.574837 30.717175Q48.824837 29.57655 48.793587 28.154675ZM62.46546 32.748425L62.46546 18.435925L72.82484 18.435925L72.82484 20.123425L64.37171 20.123425L64.37171 24.498425L72.27796 24.498425L72.27796 26.185925L64.37171 26.185925L64.37171 31.060925L73.15296 31.060925L73.15296 32.748425L62.46546 32.748425ZM74.79359 28.154675L76.57484 27.998425Q76.69984 29.060925 77.15296 29.748425Q77.62171 30.435925 78.59046 30.873425Q79.57484 31.2953 80.80921 31.2953Q81.88734 31.2953 82.71546 30.9828Q83.54359 30.654675 83.94984 30.092175Q84.35609 29.529675 84.35609 28.8578Q84.35609 28.185925 83.96546 27.685925Q83.57484 27.185925 82.68421 26.842175Q82.10609 26.6078 80.12171 26.13905Q78.15296 25.6703 77.37171 25.248425Q76.34046 24.717175 75.84046 23.9203Q75.34046 23.123425 75.34046 22.13905Q75.34046 21.0453 75.94984 20.1078Q76.55921 19.1703 77.74671 18.685925Q78.93421 18.185925 80.37171 18.185925Q81.96546 18.185925 83.18421 18.70155Q84.40296 19.217175 85.04359 20.217175Q85.69984 21.20155 85.74671 22.467175L83.93421 22.6078Q83.79359 21.248425 82.94984 20.560925Q82.10609 19.8578 80.44984 19.8578Q78.73109 19.8578 77.93421 20.498425Q77.15296 21.123425 77.15296 21.998425Q77.15296 22.779675 77.71546 23.279675Q78.26234 23.779675 80.57484 24.2953Q82.88734 24.810925 83.74671 25.20155Q84.99671 25.779675 85.59046 26.6703Q86.18421 27.5453 86.18421 28.70155Q86.18421 29.842175 85.52796 30.8578Q84.87171 31.873425 83.63734 32.435925Q82.41859 32.998425 80.88734 32.998425Q78.94984 32.998425 77.63734 32.435925Q76.32484 31.8578 75.57484 30.717175Q74.82484 29.57655 74.79359 28.154675ZM94.43421 32.748425L94.43421 18.435925L99.82484 18.435925Q101.26234 18.435925 102.01234 18.560925Q103.05921 18.748425 103.77796 19.248425Q104.49671 19.7328 104.91859 20.623425Q105.35609 21.51405 105.35609 22.57655Q105.35609 24.404675 104.18421 25.6703Q103.02796 26.9203 99.99671 26.9203L96.32484 26.9203L96.32484 32.748425L94.43421 32.748425ZM96.32484 25.2328L100.02796 25.2328Q101.85609 25.2328 102.62171 24.560925Q103.40296 23.873425 103.40296 22.623425Q103.40296 21.7328 102.94984 21.092175Q102.49671 20.45155 101.76234 20.248425Q101.27796 20.123425 99.98109 20.123425L96.32484 20.123425L96.32484 25.2328ZM107.46546 32.748425L107.46546 18.435925L117.82484 18.435925L117.82484 20.123425L109.37171 20.123425L109.37171 24.498425L117.27796 24.498425L117.27796 26.185925L109.37171 26.185925L109.37171 31.060925L118.15296 31.060925L118.15296 32.748425L107.46546 32.748425ZM120.46546 32.748425L120.46546 18.435925L126.80921 18.435925Q128.71545 18.435925 129.71545 18.82655Q130.71545 19.20155 131.3092 20.185925Q131.90295 21.154675 131.90295 22.342175Q131.90295 23.8578 130.91858 24.904675Q129.9342 25.95155 127.87171 26.2328Q128.6217 26.592175 129.01233 26.95155Q129.84045 27.70155 130.59045 28.8578L133.07483 32.748425L130.69983 32.748425L128.79358 29.76405Q127.96546 28.4828 127.43421 27.7953Q126.90296 27.1078 126.46546 26.842175Q126.04359 26.560925 125.60609 26.45155Q125.27796 26.38905 124.55921 26.38905L122.35609 26.38905L122.35609 32.748425L120.46546 32.748425ZM122.35609 24.748425L126.43421 24.748425Q127.73109 24.748425 128.44983 24.4828Q129.1842 24.217175 129.5592 23.623425Q129.94983 23.029675 129.94983 22.342175Q129.94983 21.32655 129.21545 20.6703Q128.48108 20.01405 126.88734 20.01405L122.35609 20.01405L122.35609 24.748425ZM140.4342 32.748425L140.4342 18.435925L145.82483 18.435925Q147.26233 18.435925 148.01233 18.560925Q149.0592 18.748425 149.77795 19.248425Q150.4967 19.7328 150.91858 20.623425Q151.35608 21.51405 151.35608 22.57655Q151.35608 24.404675 150.1842 25.6703Q149.02795 26.9203 145.9967 26.9203L142.32483 26.9203L142.32483 32.748425L140.4342 32.748425ZM142.32483 25.2328L146.02795 25.2328Q147.85608 25.2328 148.6217 24.560925Q149.40295 23.873425 149.40295 22.623425Q149.40295 21.7328 148.94983 21.092175Q148.4967 20.45155 147.76233 20.248425Q147.27795 20.123425 145.98108 20.123425L142.32483 20.123425L142.32483 25.2328ZM151.85608 32.748425L157.35608 18.435925L159.40295 18.435925L165.26233 32.748425L163.10608 32.748425L161.4342 28.404675L155.44983 28.404675L153.8717 32.748425L151.85608 32.748425ZM155.9967 26.873425L160.84045 26.873425L159.35608 22.904675Q158.66858 21.092175 158.34045 19.935925Q158.0592 21.310925 157.5592 22.6703L155.9967 26.873425ZM173.13733 27.13905L173.13733 25.45155L179.19983 25.435925L179.19983 30.748425Q177.79358 31.873425 176.3092 32.435925Q174.82483 32.998425 173.26233 32.998425Q171.15295 32.998425 169.4342 32.092175Q167.71545 31.185925 166.82483 29.4828Q165.94983 27.76405 165.94983 25.654675Q165.94983 23.560925 166.82483 21.76405Q167.69983 19.95155 169.34045 19.07655Q170.98108 18.185925 173.1217 18.185925Q174.66858 18.185925 175.91858 18.685925Q177.1842 19.185925 177.88733 20.092175Q178.60608 20.9828 178.98108 22.435925L177.27795 22.904675Q176.94983 21.810925 176.46545 21.185925Q175.9967 20.560925 175.10608 20.185925Q174.21545 19.810925 173.13733 19.810925Q171.82483 19.810925 170.8717 20.20155Q169.9342 20.592175 169.35608 21.248425Q168.77795 21.88905 168.44983 22.654675Q167.90295 23.9828 167.90295 25.5453Q167.90295 27.45155 168.5592 28.748425Q169.23108 30.029675 170.48108 30.654675Q171.7467 31.279675 173.15295 31.279675Q174.38733 31.279675 175.5592 30.810925Q176.73108 30.342175 177.34045 29.7953L177.34045 27.13905L173.13733 27.13905ZM182.46545 32.748425L182.46545 18.435925L192.82483 18.435925L192.82483 20.123425L184.3717 20.123425L184.3717 24.498425L192.27795 24.498425L192.27795 26.185925L184.3717 26.185925L184.3717 31.060925L193.15295 31.060925L193.15295 32.748425L182.46545 32.748425ZM201.52795 32.748425L201.52795 18.435925L211.1842 18.435925L211.1842 20.123425L203.41858 20.123425L203.41858 24.560925L210.13733 24.560925L210.13733 26.248425L203.41858 26.248425L203.41858 32.748425L201.52795 32.748425ZM213.46545 32.748425L213.46545 18.435925L219.8092 18.435925Q221.71545 18.435925 222.71545 18.82655Q223.71545 19.20155 224.3092 20.185925Q224.90295 21.154675 224.90295 22.342175Q224.90295 23.8578 223.91858 24.904675Q222.9342 25.95155 220.8717 26.2328Q221.6217 26.592175 222.01233 26.95155Q222.84045 27.70155 223.59045 28.8578L226.07483 32.748425L223.69983 32.748425L221.79358 29.76405Q220.96545 28.4828 220.4342 27.7953Q219.90295 27.1078 219.46545 26.842175Q219.04358 26.560925 218.60608 26.45155Q218.27795 26.38905 217.5592 26.38905L215.35608 26.38905L215.35608 32.748425L213.46545 32.748425ZM215.35608 24.748425L219.4342 24.748425Q220.73108 24.748425 221.44983 24.4828Q222.1842 24.217175 222.5592 23.623425Q222.94983 23.029675 222.94983 22.342175Q222.94983 21.32655 222.21545 20.6703Q221.48108 20.01405 219.88733 20.01405L215.35608 20.01405L215.35608 24.748425ZM225.85608 32.748425L231.35608 18.435925L233.40295 18.435925L239.26233 32.748425L237.10608 32.748425L235.4342 28.404675L229.44983 28.404675L227.8717 32.748425L225.85608 32.748425ZM229.9967 26.873425L234.84045 26.873425L233.35608 22.904675Q232.66858 21.092175 232.34045 19.935925Q232.0592 21.310925 231.5592 22.6703L229.9967 26.873425ZM240.3717 32.748425L240.3717 18.435925L243.23108 18.435925L246.60608 28.560925Q247.07483 29.9828 247.29358 30.685925Q247.54358 29.904675 248.0592 28.38905L251.48108 18.435925L254.02795 18.435925L254.02795 32.748425L252.21545 32.748425L252.21545 20.76405L248.04358 32.748425L246.34045 32.748425L242.19983 20.560925L242.19983 32.748425L240.3717 32.748425ZM257.46545 32.748425L257.46545 18.435925L267.82483 18.435925L267.82483 20.123425L259.3717 20.123425L259.3717 24.498425L267.27795 24.498425L267.27795 26.185925L259.3717 26.185925L259.3717 31.060925L268.15295 31.060925L268.15295 32.748425L257.46545 32.748425ZM269.79358 28.154675L271.57483 27.998425Q271.69983 29.060925 272.15295 29.748425Q272.6217 30.435925 273.59045 30.873425Q274.57483 31.2953 275.8092 31.2953Q276.88733 31.2953 277.71545 30.9828Q278.54358 30.654675 278.94983 30.092175Q279.35608 29.529675 279.35608 28.8578Q279.35608 28.185925 278.96545 27.685925Q278.57483 27.185925 277.6842 26.842175Q277.10608 26.6078 275.1217 26.13905Q273.15295 25.6703 272.3717 25.248425Q271.34045 24.717175 270.84045 23.9203Q270.34045 23.123425 270.34045 22.13905Q270.34045 21.0453 270.94983 20.1078Q271.5592 19.1703 272.7467 18.685925Q273.9342 18.185925 275.3717 18.185925Q276.96545 18.185925 278.1842 18.70155Q279.40295 19.217175 280.04358 20.217175Q280.69983 21.20155 280.7467 22.467175L278.9342 22.6078Q278.79358 21.248425 277.94983 20.560925Q277.10608 19.8578 275.44983 19.8578Q273.73108 19.8578 272.9342 20.498425Q272.15295 21.123425 272.15295 21.998425Q272.15295 22.779675 272.71545 23.279675Q273.26233 23.779675 275.57483 24.2953Q277.88733 24.810925 278.7467 25.20155Q279.9967 25.779675 280.59045 26.6703Q281.1842 27.5453 281.1842 28.70155Q281.1842 29.842175 280.52795 30.8578Q279.8717 31.873425 278.63733 32.435925Q277.41858 32.998425 275.88733 32.998425Q273.94983 32.998425 272.63733 32.435925Q271.32483 31.8578 270.57483 30.717175Q269.82483 29.57655 269.79358 28.154675Z" fill-rule="nonzero"/></svg>